<svg
  xmlns="http://www.w3.org/2000/svg"
  width="current"
  height="current"
  viewBox="0 0 24 24"
>
  <path fill="current" fill-rule="evenodd" d="<?xml version="1.0" standalone="no"?>
<!DOCTYPE svg PUBLIC "-//W3C//DTD SVG 20010904//EN"
 "http://www.w3.org/TR/2001/REC-SVG-20010904/DTD/svg10.dtd">
<svg version="1.0" xmlns="http://www.w3.org/2000/svg"
 width="310.000000pt" height="162.000000pt" viewBox="0 0 310.000000 162.000000"
 preserveAspectRatio="xMidYMid meet">

<g transform="translate(0.000000,162.000000) scale(0.100000,-0.100000)"
fill="#000000" stroke="none">
<path d="M2258 1613 c28 -2 76 -2 105 0 28 2 5 3 -53 3 -58 0 -81 -1 -52 -3z"/>
<path d="M2506 1611 c40 -10 56 -20 49 -31 -3 -5 7 -12 22 -15 15 -4 39 -12
53 -18 27 -13 330 -17 330 -5 0 4 9 9 20 13 14 4 19 14 17 36 l-2 29 -260 -1
c-143 -1 -246 -4 -229 -8z"/>
<path d="M1135 1551 c-63 -28 -95 -73 -95 -132 0 -35 6 -58 22 -79 11 -16 24
-27 28 -25 3 2 36 6 74 9 l67 5 -2 -42 c-2 -24 0 -48 4 -55 5 -7 -4 -15 -25
-21 l-33 -9 34 -1 c33 -1 34 -2 15 -16 -19 -14 -18 -14 4 -15 27 0 29 -26 3
-35 -18 -5 -16 -9 17 -41 20 -18 39 -34 43 -34 4 0 16 11 27 25 11 14 23 25
26 25 17 0 -2 -77 -31 -125 -11 -20 -12 -19 -39 5 -19 18 -28 21 -31 12 -4
-10 -8 -10 -18 -2 -10 9 -16 7 -24 -9 -6 -11 -11 -28 -11 -37 0 -14 -8 -10
-35 16 -27 26 -35 42 -35 68 l0 34 -36 -35 c-20 -19 -74 -54 -120 -77 -46 -23
-85 -45 -85 -49 -1 -3 -3 -22 -5 -41 -2 -19 -7 -42 -10 -50 -3 -8 -10 -42 -14
-75 -30 -221 -41 -293 -50 -313 -6 -13 -10 -39 -10 -59 0 -28 8 -42 37 -69 20
-19 38 -32 41 -30 2 3 17 -1 34 -8 19 -8 44 -10 69 -6 36 7 39 6 39 -15 0 -13
-9 -67 -20 -120 -11 -53 -20 -103 -20 -111 0 -12 92 -14 585 -14 l585 0 0 36
c0 40 -18 113 -32 128 -4 6 -8 17 -8 26 0 10 -7 31 -16 48 -28 57 -33 129 -17
262 22 183 13 361 -23 440 -33 73 -28 93 20 85 73 -14 101 38 70 128 -10 29
-21 57 -25 62 -4 6 -15 43 -24 83 -22 88 -38 111 -112 153 -63 36 -114 41
-175 15 -43 -18 -78 -21 -78 -5 0 14 -90 0 -107 -17 -22 -21 -15 -42 16 -49
40 -9 75 -48 66 -75 -4 -11 -6 -49 -6 -83 0 -34 -7 -82 -15 -107 -9 -25 -16
-52 -17 -61 -1 -20 -27 -21 -27 -1 0 10 -4 12 -12 4 -28 -22 -76 -23 -152 -3
-42 11 -84 27 -92 36 -9 8 -24 20 -35 25 -29 16 -26 76 6 106 30 28 42 71 26
96 -7 11 -9 34 -5 57 12 72 -23 132 -91 158 -58 22 -98 23 -140 4z m573 -180
c3 -8 -1 -12 -9 -9 -7 2 -15 10 -17 17 -3 8 1 12 9 9 7 -2 15 -10 17 -17z
m158 13 c13 -3 28 -21 37 -46 16 -38 15 -40 -4 -45 -18 -5 -19 -6 -2 -19 16
-12 16 -13 -10 -14 -16 0 -26 -4 -22 -10 3 -5 17 -10 31 -10 13 0 24 -2 24 -4
0 -2 -13 -33 -30 -69 -29 -65 -64 -97 -105 -97 -39 0 -73 151 -40 183 8 8 12
17 9 20 -10 10 7 65 27 92 20 25 44 30 85 19z m-559 -90 c2 -7 -3 -27 -13 -43
l-18 -31 -13 42 c-6 23 -10 45 -7 49 6 11 45 -2 51 -17z m813 -239 c-7 -8 -16
-15 -21 -15 -11 0 1 33 15 42 16 11 20 -10 6 -27z m-280 -5 c0 -6 10 -8 23 -5
15 4 29 0 40 -12 16 -18 14 -22 -38 -77 l-55 -58 0 35 c0 19 -3 55 -6 81 -6
42 -5 46 15 46 11 0 21 -5 21 -10z m-505 -223 c-9 -78 -19 -145 -22 -149 -2
-5 17 -8 44 -8 31 0 43 -3 34 -9 -9 -6 -10 -11 -2 -15 26 -17 7 -26 -51 -25
-35 0 -57 3 -50 6 10 4 10 8 0 21 -8 9 -9 17 -3 19 13 4 9 187 -5 226 -16 47
-13 56 17 54 20 -1 31 4 38 21 17 39 17 5 0 -141z m-148 93 c5 0 14 5 20 11
20 20 31 1 22 -38 -11 -49 -11 -264 0 -281 6 -11 10 -10 15 3 6 16 8 16 25 -4
10 -12 23 -21 27 -19 5 1 19 -1 32 -6 16 -5 22 -15 22 -37 0 -26 4 -29 33 -31
l32 -1 -32 -4 c-26 -3 -33 -9 -33 -27 0 -12 -6 -31 -14 -42 -14 -18 -15 -18
-21 -1 -4 9 -12 17 -18 17 -6 0 -7 -3 -3 -7 3 -4 -4 -13 -16 -20 -21 -12 -21
-13 -3 -12 65 4 76 0 73 -28 -3 -27 -5 -28 -70 -31 -54 -2 -68 -6 -68 -19 0
-13 12 -15 75 -11 65 3 73 1 58 -10 -12 -8 -42 -12 -88 -10 -64 3 -70 5 -73
26 -4 23 -38 43 -70 41 -15 -1 -15 -2 1 -6 18 -5 24 -33 6 -33 -5 0 -7 -4 -4
-10 6 -10 -18 -17 -70 -22 -41 -4 -75 32 -76 80 0 34 -1 35 -11 14 -10 -21 -5
-53 18 -109 11 -25 -13 -13 -24 12 -22 49 -11 120 19 120 8 0 13 24 16 69 2
39 6 72 8 74 10 10 33 -20 34 -43 3 -53 4 -55 32 -55 22 0 27 4 22 16 -3 8
-12 13 -20 10 -8 -3 -12 -2 -8 3 3 5 -1 12 -7 14 -7 3 -1 6 15 6 20 1 30 8 37
26 5 14 14 25 19 25 6 0 8 7 5 15 -5 13 -9 13 -22 3 -13 -11 -14 -10 -10 2 3
8 17 15 32 15 19 -1 25 3 21 13 -4 12 -2 12 8 4 8 -7 17 -9 21 -5 4 4 11 1 16
-7 17 -27 22 -2 6 32 -27 57 -63 177 -54 180 5 2 2 26 -7 53 -8 28 -15 63 -15
79 l0 28 29 -31 c16 -17 33 -31 38 -31z m587 -42 c-15 -51 -24 -68 -34 -68 -6
0 -2 17 9 39 11 21 17 41 14 45 -4 3 -1 6 6 6 8 0 10 -8 5 -22z m-329 -217
l-20 -8 20 -5 c18 -5 18 -6 -2 -7 -14 -1 -23 5 -23 14 0 9 9 15 23 14 21 0 21
-1 2 -8z m45 -3 c0 -7 -5 -20 -10 -28 -8 -11 -9 -9 -8 13 2 26 18 40 18 15z
m49 -10 c0 -22 -1 -22 -9 -3 -7 16 -9 17 -9 3 -1 -28 -21 -31 -21 -4 0 19 5
26 20 26 14 0 20 -6 19 -22z m36 12 c9 8 14 6 18 -5 4 -8 3 -14 -1 -14 -24 4
-33 -4 -12 -11 l25 -8 -27 -1 c-24 -1 -28 3 -27 27 0 15 3 21 6 14 4 -9 9 -10
18 -2z m125 -10 c1 -12 3 -11 11 3 12 21 45 22 53 2 4 -10 -1 -15 -15 -15 -17
0 -20 -4 -15 -22 4 -13 9 -37 12 -54 6 -30 8 -31 48 -27 32 4 45 1 59 -15 20
-22 14 -48 -14 -57 -31 -10 -22 -25 16 -25 19 0 35 -4 35 -10 0 -15 -165 -13
-178 3 -8 9 -1 11 34 8 24 -1 44 1 44 5 -1 5 -20 21 -43 36 -54 35 -65 25 -69
-60 -2 -37 -7 -66 -13 -64 -5 1 -8 20 -6 42 2 35 0 40 -18 40 -12 0 -21 5 -21
10 0 6 9 10 20 10 15 0 20 7 20 24 0 14 -4 27 -9 30 -4 3 -6 -6 -3 -20 4 -22
2 -24 -22 -20 -35 6 -43 -11 -16 -39 12 -13 20 -29 18 -37 -3 -8 -11 -3 -22
14 l-18 27 -41 -44 c-23 -24 -54 -46 -70 -50 -33 -9 -77 1 -77 17 0 9 3 9 12
0 15 -15 47 -15 73 1 18 11 19 19 14 87 l-5 75 -2 -72 c-2 -74 -22 -115 -22
-46 l-1 38 -20 -27 c-24 -32 -44 -35 -71 -11 -23 21 -23 48 2 73 17 17 24 18
45 8 14 -6 25 -17 25 -25 0 -7 5 -13 10 -13 15 0 12 60 -2 61 -7 0 0 5 15 9
47 14 53 6 49 -66 -2 -46 0 -64 7 -59 16 9 51 85 40 85 -12 0 -11 87 1 95 7 4
8 -7 4 -33 -5 -30 -3 -40 9 -45 17 -6 21 3 33 66 3 20 14 42 23 47 13 8 14 10
1 11 -8 1 -18 1 -22 0 -5 0 -8 10 -8 24 0 22 3 24 45 22 32 -1 45 -6 45 -17z
m-247 -27 c-7 -2 -19 -2 -25 0 -7 3 -2 5 12 5 14 0 19 -2 13 -5z m144 -262
l-14 -33 -6 38 c-7 45 0 61 19 42 13 -12 13 -19 1 -47z m173 23 c0 -26 2 -26
50 -22 27 3 47 1 44 -4 -3 -4 -29 -8 -58 -8 -52 0 -54 1 -58 30 -3 20 0 30 9
30 7 0 13 -11 13 -26z m120 6 c0 -5 -4 -10 -10 -10 -5 0 -10 5 -10 10 0 6 5
10 10 10 6 0 10 -4 10 -10z m-139 -60 c15 0 7 -252 -8 -258 -10 -3 -13 15 -13
67 0 56 -3 71 -15 71 -12 0 -15 -13 -15 -59 0 -33 -4 -63 -10 -66 -6 -4 -10
10 -10 35 0 36 -3 41 -17 35 -38 -14 -110 -18 -118 -5 -4 6 -7 35 -7 63 -1 29
-5 60 -10 70 -8 15 -3 17 45 17 32 0 59 -5 65 -13 8 -9 1 -11 -34 -8 l-45 3 3
-58 c3 -58 4 -59 34 -62 16 -2 42 2 57 7 25 10 27 15 27 64 0 31 -6 61 -16 75
-15 22 -9 27 20 16 11 -4 16 -19 16 -50 0 -32 4 -44 15 -44 19 0 21 80 3 99
-11 11 -10 13 5 7 10 -3 23 -6 28 -6z m-251 -70 c0 -42 -26 -120 -41 -120 -5
0 -4 12 1 26 6 14 10 46 10 70 l0 46 -69 -4 c-55 -2 -67 0 -59 10 7 7 37 12
84 12 l74 0 0 -40z m-235 -40 c3 -5 1 -10 -4 -10 -6 0 -11 5 -11 10 0 6 2 10
4 10 3 0 8 -4 11 -10z m164 -100 l116 -7 -116 -1 c-99 -2 -119 1 -130 15 -12
14 -12 16 0 8 8 -5 67 -11 130 -15z m211 -71 c0 -5 -4 -9 -10 -9 -5 0 -10 7
-10 16 0 8 5 12 10 9 6 -3 10 -10 10 -16z"/>
<path d="M1812 1221 c-13 -37 -11 -45 10 -39 9 2 11 14 8 38 l-5 35 -13 -34z"/>
<path d="M1807 1140 c-6 -22 12 -27 31 -8 17 17 15 28 -7 28 -10 0 -21 -9 -24
-20z"/>
<path d="M1360 640 c0 -5 5 -10 11 -10 5 0 7 5 4 10 -3 6 -8 10 -11 10 -2 0
-4 -4 -4 -10z"/>
<path d="M1180 390 c0 -6 28 -10 65 -10 37 0 65 4 65 10 0 6 -28 10 -65 10
-37 0 -65 -4 -65 -10z"/>
<path d="M1068 343 c7 -3 16 -2 19 1 4 3 -2 6 -13 5 -11 0 -14 -3 -6 -6z"/>
<path d="M1643 545 c0 -8 9 -15 20 -15 16 0 17 3 7 15 -7 8 -16 15 -20 15 -3
0 -7 -7 -7 -15z"/>
<path d="M1774 516 c-18 -14 -18 -16 -2 -32 21 -22 68 -12 68 15 0 17 -18 31
-39 31 -4 0 -16 -6 -27 -14z"/>
<path d="M1397 474 c-4 -4 -7 -20 -7 -36 0 -23 4 -29 18 -26 11 2 17 13 17 32
0 29 -14 43 -28 30z"/>
<path d="M1800 1499 c0 -5 5 -7 10 -4 6 3 10 8 10 11 0 2 -4 4 -10 4 -5 0 -10
-5 -10 -11z"/>
<path d="M2985 1411 c-3 -5 -2 -12 3 -15 12 -7 52 4 52 15 0 12 -47 12 -55 0z"/>
<path d="M2881 1393 c-1 -17 16 -25 25 -12 4 7 3 9 -4 5 -5 -3 -13 0 -15 6 -4
9 -6 10 -6 1z"/>
<path d="M2990 1356 l-34 -13 33 -11 c50 -17 111 -16 111 3 0 10 -10 15 -30
15 -16 0 -30 5 -30 10 0 12 -6 12 -50 -4z"/>
</g>
</svg>

" />
</svg>
