<svg
  xmlns="http://www.w3.org/2000/svg"
  width="current"
  height="current"
  viewBox="0 0 24 24"
>
  <path fill="current" fill-rule="evenodd" d="<?xml version="1.0" standalone="no"?>
<!DOCTYPE svg PUBLIC "-//W3C//DTD SVG 20010904//EN"
 "http://www.w3.org/TR/2001/REC-SVG-20010904/DTD/svg10.dtd">
<svg version="1.0" xmlns="http://www.w3.org/2000/svg"
 width="259.000000pt" height="194.000000pt" viewBox="0 0 259.000000 194.000000"
 preserveAspectRatio="xMidYMid meet">

<g transform="translate(0.000000,194.000000) scale(0.100000,-0.100000)"
fill="#000000" stroke="none">
<path d="M1577 1790 c6 -7 32 -15 57 -17 25 -3 46 -7 46 -8 0 -2 -16 -19 -36
-39 -20 -20 -34 -41 -31 -48 5 -15 55 -12 75 4 21 18 7 19 -24 3 -19 -9 -30
-11 -33 -4 -6 18 40 58 88 76 l46 18 -80 6 c-44 4 -89 10 -100 14 -16 6 -18 5
-8 -5z"/>
<path d="M1795 1659 c-4 -6 -5 -13 -2 -16 7 -7 27 6 27 18 0 12 -17 12 -25 -2z"/>
<path d="M1655 1652 c-13 -14 12 -21 53 -15 68 8 72 19 7 19 -31 0 -58 -2 -60
-4z"/>
<path d="M1325 1620 c-85 -13 -135 -61 -135 -131 0 -57 46 -173 51 -129 1 6 2
16 3 23 1 6 -6 23 -16 36 -10 13 -18 28 -18 32 0 15 33 10 53 -8 19 -17 20
-17 14 5 -7 28 17 87 40 100 33 19 95 -20 77 -49 -3 -5 -1 -9 4 -9 17 0 22 29
8 43 -8 7 -11 26 -9 44 6 39 -15 52 -72 43z"/>
<path d="M1744 1574 c3 -9 6 -27 6 -40 0 -13 4 -24 9 -24 14 0 18 32 7 58 -10
25 -32 31 -22 6z"/>
<path d="M1783 1574 c-3 -9 0 -19 6 -24 8 -5 12 -32 10 -84 -1 -42 1 -79 4
-83 4 -3 7 42 7 100 0 67 -4 107 -10 107 -6 0 -13 -7 -17 -16z"/>
<path d="M1661 1556 c-6 -7 -21 -11 -34 -9 -12 2 -31 -3 -42 -12 l-20 -17 20
7 c49 17 61 18 48 4 -7 -7 -13 -18 -13 -23 0 -6 12 4 26 22 32 40 48 41 42 2
-6 -40 3 -37 23 6 13 26 13 32 3 23 -10 -8 -14 -8 -14 0 0 15 -25 14 -39 -3z"/>
<path d="M885 1531 c-46 -19 -59 -48 -63 -141 -2 -49 -1 -97 3 -107 15 -37 13
-73 -6 -83 -10 -6 -26 -24 -36 -40 -16 -28 -43 -41 -43 -21 0 5 -12 23 -26 40
-24 29 -31 31 -87 31 -65 -1 -86 -10 -105 -47 -15 -27 -16 -103 -2 -103 6 0
10 -7 10 -15 0 -8 5 -15 10 -15 6 0 10 5 10 10 0 6 17 10 38 9 30 0 33 -2 17
-9 -17 -7 -15 -9 13 -9 31 -1 32 0 21 22 -12 22 -12 22 9 3 12 -10 19 -23 15
-29 -3 -5 -2 -7 3 -4 6 3 16 2 24 -3 9 -5 19 -1 31 13 15 19 18 19 19 5 1 -52
-75 -148 -116 -148 -24 0 -81 51 -93 83 -7 18 -9 17 -20 -10 -13 -31 -46 -49
-161 -87 l-65 -21 -27 -79 c-27 -82 -51 -121 -68 -111 -6 4 -8 11 -4 16 3 5 9
7 14 4 5 -3 11 -1 15 5 3 6 -1 13 -9 16 -18 7 -22 34 -4 34 6 0 8 3 5 6 -12
13 -37 -18 -42 -55 -13 -74 -44 -123 -45 -68 0 12 -1 32 -1 45 0 14 -4 20 -11
16 -6 -4 -16 0 -22 8 -8 10 -23 13 -48 10 l-37 -4 0 -55 c1 -54 1 -55 28 -50
15 3 54 2 87 -2 35 -5 61 -5 65 1 15 23 27 -23 24 -91 -3 -71 -2 -74 32 -112
32 -35 34 -41 24 -73 -11 -41 -9 -43 14 -19 16 15 19 15 51 -2 18 -10 31 -22
28 -27 -3 -5 -12 -4 -20 3 -22 18 -23 7 -2 -13 10 -10 18 -13 18 -8 0 6 5 10
10 10 7 0 7 -7 0 -21 -9 -15 -15 -18 -24 -10 -7 6 -16 8 -19 4 -4 -3 -7 -2 -7
3 0 5 -13 9 -30 9 l-30 0 23 -18 c12 -10 47 -34 77 -54 30 -20 57 -39 60 -42
3 -3 27 -7 54 -9 62 -3 66 -6 66 -47 0 -32 0 -33 35 -25 20 5 33 4 29 -1 -9
-15 6 -10 23 6 11 12 18 13 29 4 20 -16 31 -4 38 43 l6 43 65 -2 c36 -1 67 2
70 8 4 5 13 9 21 9 12 0 14 -9 9 -44 -7 -43 -6 -45 21 -48 53 -6 122 14 128
36 5 18 8 19 16 6 8 -13 10 -13 10 2 0 9 -5 20 -10 23 -6 4 -9 14 -6 23 3 10
6 43 7 74 2 54 4 57 32 64 26 5 28 9 23 37 -15 85 -16 148 -5 214 13 72 23 81
39 38 6 -15 17 -23 32 -23 13 0 48 -2 78 -5 48 -4 55 -7 52 -25 -2 -11 2 -23
8 -27 13 -8 13 -71 0 -96 -8 -14 -7 -19 2 -19 7 0 4 -6 -7 -12 -37 -20 -74
-60 -68 -74 3 -8 1 -20 -5 -27 -17 -21 -55 -146 -49 -162 8 -19 43 -20 51 0 3
8 12 15 19 15 8 0 22 9 32 20 9 10 22 18 27 17 6 -1 21 18 34 43 28 50 40 60
68 56 11 -1 28 6 38 16 22 22 24 36 3 18 -12 -10 -16 -9 -20 2 -4 9 -16 13
-34 10 -34 -5 -41 4 -34 39 7 39 90 68 108 39 3 -5 11 -10 18 -10 6 0 2 7 -9
15 -28 21 -1 19 69 -5 43 -15 63 -18 77 -10 10 5 21 10 24 10 10 0 76 -76 76
-87 0 -16 -8 -16 -50 -1 -28 9 -35 8 -45 -5 -6 -9 -23 -19 -38 -22 -37 -10
-41 -20 -12 -33 14 -7 25 -17 25 -24 0 -7 5 -6 13 4 17 22 57 30 57 12 0 -8 7
-14 15 -14 8 0 15 5 15 11 0 6 9 9 20 6 13 -3 20 0 20 8 0 20 79 -9 97 -35 15
-22 34 -25 61 -11 9 5 25 12 35 15 14 5 16 10 7 25 -5 11 -10 31 -10 45 0 14
-4 26 -10 26 -5 0 -10 8 -10 18 0 10 -7 27 -15 39 -17 24 -7 37 21 26 13 -5
16 -3 11 10 -3 9 -2 19 3 22 12 8 8 46 -5 42 -6 -3 -9 12 -7 38 4 40 -8 146
-27 259 -5 29 -16 55 -27 63 -17 13 -20 11 -25 -14 -6 -28 -13 -22 -22 22 -3
11 -3 3 -2 -17 3 -35 2 -36 -19 -25 -38 21 -56 40 -56 57 0 10 -13 23 -30 30
-33 14 -35 21 -19 51 9 18 9 19 -11 7 -13 -8 -18 -18 -13 -28 14 -30 9 -74
-36 -295 -8 -38 -9 -36 -12 30 -2 39 -3 86 -3 105 -1 24 -6 36 -18 38 -11 2
-17 -3 -17 -15 0 -10 -3 -52 -8 -93 l-7 -75 -17 120 c-10 66 -16 121 -14 124
2 2 11 -4 20 -13 20 -20 26 -20 19 -2 -3 9 5 16 23 21 30 7 63 32 63 47 0 5
-15 -2 -32 -15 -53 -39 -66 -40 -95 -9 -30 32 -43 63 -43 103 0 19 5 29 15 29
12 0 13 4 4 19 -17 25 -4 51 24 51 29 0 65 -35 45 -43 -9 -4 -7 -6 4 -6 9 -1
21 -9 27 -18 7 -14 12 -15 23 -5 20 16 28 6 28 -37 l1 -36 16 35 c16 35 16 35
22 10 6 -21 8 -17 14 23 12 88 -32 145 -120 155 -33 3 -48 0 -63 -13 -11 -10
-30 -23 -43 -29 -12 -7 -24 -24 -27 -41 l-5 -29 -39 54 c-21 30 -41 70 -43 90
-4 27 -13 42 -34 54 -16 9 -36 30 -43 45 -30 57 -43 58 -84 11 -20 -24 -47
-61 -59 -83 -12 -22 -27 -44 -33 -49 -5 -4 -8 -5 -5 -2 2 4 -5 24 -15 45 -11
21 -20 53 -20 72 0 51 -19 148 -37 189 -25 60 -79 83 -138 59z m55 -95 c43
-36 48 -46 45 -83 -2 -20 2 -53 9 -74 l13 -38 -39 -15 c-21 -9 -48 -16 -61
-15 -12 0 -16 3 -9 6 6 2 12 10 12 16 1 7 15 21 32 32 17 11 34 27 36 35 3 9
-5 5 -18 -8 -41 -44 -90 -16 -115 66 -5 18 -2 22 17 23 20 1 21 2 3 7 l-20 5
20 8 c17 6 17 8 3 8 -21 1 -24 31 -6 49 15 15 45 7 78 -22z m77 -63 c-3 -10
-5 -4 -5 12 0 17 2 24 5 18 2 -7 2 -21 0 -30z m1 -183 c15 0 15 -2 2 -10 -8
-5 -22 -9 -30 -9 -9 0 -11 2 -3 5 7 3 11 11 9 17 -1 7 -1 9 1 5 3 -5 12 -8 21
-8z m46 -16 c9 -3 16 -18 17 -33 0 -23 1 -24 9 -6 5 12 9 14 9 6 1 -8 -6 -23
-16 -33 -17 -19 -5 -26 14 -7 7 7 12 2 15 -20 3 -21 0 -31 -9 -31 -7 0 -13 -5
-13 -11 0 -5 5 -7 10 -4 6 4 10 -17 10 -54 0 -38 -4 -61 -11 -61 -6 0 -9 6 -6
14 8 19 -25 26 -41 9 -7 -7 -11 -17 -7 -22 3 -5 -1 -12 -7 -14 -7 -3 -3 -6 10
-6 25 -1 31 -21 6 -21 -9 0 -12 -5 -8 -12 6 -10 4 -10 -7 0 -7 6 -30 12 -51
12 -24 0 -38 -5 -38 -12 0 -8 -3 -9 -8 -3 -4 6 -20 12 -36 13 -21 3 -26 0 -21
-10 3 -7 -2 -3 -13 10 -24 27 -29 27 -35 5 -4 -17 -5 -17 -6 0 -1 24 24 32 55
18 15 -7 23 -7 19 -1 -3 5 -4 10 -1 10 2 0 13 3 23 7 15 5 16 4 6 -8 -9 -11
-6 -14 18 -16 25 -2 30 2 39 36 10 39 49 96 50 74 0 -7 7 -10 17 -6 11 4 14 3
9 -5 -4 -7 -2 -12 4 -12 6 0 8 -4 5 -10 -3 -5 -1 -10 4 -10 6 0 11 3 11 8 0 4
3 17 6 30 5 16 2 22 -10 22 -10 0 -13 6 -10 15 8 20 -15 47 -33 41 -9 -4 -11
-1 -7 6 5 8 2 9 -10 5 -10 -4 -15 -3 -11 3 3 6 -4 10 -17 11 -22 0 -22 1 -3 8
11 5 23 4 26 -2 8 -11 29 -1 29 14 0 6 -4 7 -10 4 -11 -7 -14 38 -3 48 8 8 8
8 27 1z m146 -38 c0 -2 -7 -7 -16 -10 -8 -3 -12 -2 -9 4 6 10 25 14 25 6z
m-272 -101 c-3 -3 -15 -7 -26 -10 -15 -2 -19 0 -15 11 3 7 9 11 14 8 5 -3 9 0
9 7 0 10 3 10 12 1 6 -6 9 -14 6 -17z m122 17 c0 -5 -7 -9 -15 -9 -8 0 -15 4
-15 9 0 4 7 8 15 8 8 0 15 -4 15 -8z m-223 -24 c-3 -8 -6 -5 -6 6 -1 11 2 17
5 13 3 -3 4 -12 1 -19z m346 -30 c-7 -57 -19 -68 -16 -15 2 58 2 57 12 57 4 0
6 -19 4 -42z m-6 -83 c0 -8 -4 -12 -9 -9 -5 3 -6 10 -3 15 9 13 12 11 12 -6z
m-662 -53 c-2 -7 0 -10 5 -7 6 4 10 -5 10 -22 0 -15 2 -70 4 -122 4 -67 2 -99
-7 -110 -9 -11 -9 -13 0 -8 9 6 11 -19 9 -100 -3 -81 -7 -107 -16 -105 -18 4
-59 -36 -82 -82 l-19 -38 -25 23 c-16 15 -21 26 -14 33 7 7 14 6 22 -2 7 -7
16 -12 22 -12 5 0 1 6 -9 14 -16 12 -17 16 -6 30 11 13 11 19 1 31 -16 20 -59
16 -53 -5 3 -10 -1 -8 -12 5 -12 14 -19 16 -22 8 -3 -7 -11 -13 -18 -13 -16 0
-26 25 -19 44 3 9 -3 20 -15 28 -19 11 -19 14 -4 30 15 17 15 18 -3 19 -16 0
-15 2 5 10 13 5 26 7 29 4 3 -3 0 -5 -7 -5 -7 0 -10 -4 -6 -9 3 -5 1 -12 -5
-16 -20 -12 -10 -26 10 -15 11 6 26 7 33 3 6 -4 15 -8 19 -8 12 0 22 -15 10
-15 -7 0 -12 -5 -12 -11 0 -6 6 -9 13 -6 6 2 24 0 39 -4 26 -7 28 -5 35 29 4
20 8 39 8 42 1 3 5 22 9 43 9 39 30 46 32 11 2 -54 5 -65 13 -60 5 4 7 -3 4
-14 -3 -11 -9 -17 -14 -14 -5 3 -9 -2 -9 -11 0 -9 -5 -13 -11 -9 -7 4 -10 1
-7 -7 3 -8 -6 -19 -21 -26 -24 -12 -24 -12 -2 -7 15 4 21 2 17 -4 -3 -6 -2
-14 4 -17 6 -4 9 -1 8 7 -2 7 2 12 8 11 7 -1 15 9 18 23 4 16 12 24 24 22 13
-2 17 5 17 35 0 20 -2 37 -6 37 -7 0 -29 55 -29 72 0 5 6 6 13 2 8 -6 8 -3 -1
9 -12 14 -11 16 5 12 12 -2 20 2 20 10 0 8 -9 11 -25 9 -21 -4 -24 -2 -19 16
3 14 1 20 -6 17 -7 -3 -11 -10 -10 -16 2 -6 -2 -11 -7 -11 -6 0 -8 -12 -5 -27
5 -28 5 -28 -5 -4 -6 14 -8 31 -6 38 3 7 1 12 -5 10 -6 -1 -13 17 -15 41 -4
38 9 59 18 30 3 -7 7 -5 11 6 4 10 3 15 -3 11 -6 -3 -10 1 -10 9 0 9 4 16 9
16 6 0 6 12 1 30 -6 19 -5 32 2 36 6 4 8 2 4 -4 -3 -5 -1 -12 6 -14 7 -3 12
-21 11 -44 0 -21 2 -33 4 -26 3 6 9 10 14 7 4 -3 11 7 15 22 3 15 7 33 9 40 2
7 0 15 -5 18 -5 3 -11 -7 -13 -22 -3 -16 -5 -5 -4 22 0 33 -3 49 -11 48 -16
-4 -15 14 1 20 15 6 39 -23 32 -41z m303 23 c-3 -3 -9 2 -12 12 -6 14 -5 15 5
6 7 -7 10 -15 7 -18z m-56 -28 c-9 -11 -6 -19 14 -38 23 -21 25 -30 21 -76 -5
-55 -22 -82 -47 -76 -12 4 -12 3 -2 -5 17 -12 6 -81 -14 -89 -8 -3 -11 -9 -8
-14 3 -5 0 -9 -5 -9 -6 0 -11 5 -11 11 0 8 -4 8 -13 1 -9 -8 -16 -6 -25 8 -9
14 -8 20 1 23 9 3 9 8 -2 20 -9 11 -10 17 -2 17 6 0 11 6 11 14 0 8 11 27 24
43 13 15 22 36 20 46 -1 9 2 17 7 17 4 0 14 10 20 23 12 22 11 22 -14 -2 -15
-13 -24 -28 -21 -32 3 -5 0 -9 -5 -9 -18 0 -13 25 11 55 l21 28 -22 -13 c-32
-17 -37 -6 -7 18 24 18 24 21 9 33 -14 13 -13 15 13 20 35 6 40 4 26 -14z m39
9 c5 3 9 1 9 -4 0 -6 -7 -13 -16 -16 -8 -3 -12 -11 -8 -17 5 -8 3 -9 -5 -4 -9
5 -9 11 -3 17 6 6 9 16 8 22 -2 6 -1 8 1 3 3 -4 9 -5 14 -1z m134 -24 c-3 -3
-11 0 -18 7 -9 10 -8 11 6 5 10 -3 15 -9 12 -12z m-225 -1 c0 -6 -4 -12 -8
-15 -5 -3 -9 1 -9 9 0 8 4 15 9 15 4 0 8 -4 8 -9z m380 -25 c0 -13 -3 -38 -6
-55 l-7 -32 -32 48 c-18 26 -31 51 -28 56 2 4 20 7 39 7 29 0 34 -3 34 -24z
m-425 -9 c6 -5 2 -6 -10 -3 -17 6 -16 3 5 -16 14 -13 20 -19 13 -14 -8 5 -16
6 -19 3 -3 -3 3 -12 15 -19 25 -15 27 -37 6 -64 -15 -19 -15 -19 -9 1 5 19 5
19 -9 3 -8 -10 -17 -15 -20 -11 -8 7 -10 -16 -7 -62 2 -31 22 -68 33 -60 4 3
5 2 2 -2 -3 -3 3 -16 14 -27 10 -12 23 -36 30 -55 l11 -34 -21 19 c-31 28 -70
99 -81 146 -12 57 12 234 30 212 4 -5 12 -13 17 -17z m645 -58 c6 -11 10 -26
8 -34 -2 -7 -11 2 -20 21 -19 36 -7 49 12 13z m-969 -14 c5 4 9 -1 9 -9 0 -19
-11 -20 -29 -3 -11 10 -11 8 -1 -11 15 -30 4 -42 -15 -16 -11 16 -13 31 -6 62
1 2 8 -4 17 -12 8 -9 20 -14 25 -11z m56 -61 c3 -34 0 -54 -6 -54 -6 0 -11 17
-11 39 0 21 -3 54 -6 72 -5 29 -4 31 7 15 6 -10 14 -43 16 -72z m826 34 c-6
-11 -41 -10 -47 1 -3 4 8 8 23 7 16 -1 27 -4 24 -8z m-1156 -35 c-9 -9 -19
-14 -23 -11 -10 10 6 28 24 28 15 0 15 -1 -1 -17z m750 10 c-4 -3 0 -14 9 -24
10 -11 12 -19 5 -24 -17 -10 -28 2 -25 27 3 29 3 28 11 28 3 0 3 -3 0 -7z
m-520 -9 c-3 -3 -12 -4 -19 -1 -8 3 -5 6 6 6 11 1 17 -2 13 -5z m957 -19 c-3
-7 -14 -11 -25 -8 -22 6 -25 19 -6 26 19 6 36 -3 31 -18z m-954 0 c5 3 18 1
27 -5 14 -8 14 -10 3 -9 -33 3 -51 -2 -45 -11 5 -8 11 -8 19 -1 7 6 16 8 20 4
3 -4 -8 -13 -26 -21 l-33 -15 30 -7 c17 -4 24 -8 17 -9 -6 0 -11 -4 -10 -8 3
-16 -15 -43 -29 -43 -8 0 -11 5 -7 12 5 8 2 9 -10 5 -10 -4 -15 -3 -11 3 3 5
1 19 -5 30 -8 15 -8 25 0 38 9 15 10 14 5 -5 -8 -28 6 -30 22 -4 10 15 9 22
-2 31 -22 18 -18 32 5 20 11 -6 25 -8 30 -5z m487 0 c0 -8 -4 -15 -9 -15 -10
0 -11 14 -1 23 9 10 10 9 10 -8z m-427 -35 c0 -5 -2 -10 -4 -10 -3 0 -8 5 -11
10 -3 6 -1 10 4 10 6 0 11 -4 11 -10z m450 -3 c0 -7 9 -18 20 -25 12 -7 18
-17 14 -23 -3 -6 1 -18 9 -27 9 -9 17 -24 19 -32 2 -8 9 -20 17 -26 18 -14 7
-46 -14 -38 -8 3 -15 1 -15 -4 0 -6 9 -12 20 -14 12 -2 20 -7 20 -12 -1 -5 4
-13 12 -18 8 -5 2 -6 -17 -2 -49 10 -57 13 -50 24 3 6 -1 7 -9 4 -9 -4 -16 -1
-16 6 0 7 -7 10 -16 6 -8 -3 -13 -2 -10 2 3 5 -1 21 -9 36 -14 25 -13 27 5 21
11 -3 28 -1 37 5 16 10 16 10 -3 5 -12 -3 -32 -1 -45 4 -13 5 -17 10 -10 10
12 1 12 4 3 13 -14 14 -16 72 -3 63 5 -3 12 -1 16 5 3 5 -1 10 -10 10 -9 0
-13 5 -10 10 9 14 45 12 45 -3z m925 -6 c3 -5 2 -12 -3 -15 -5 -3 -9 1 -9 9 0
17 3 19 12 6z m-1398 -7 c-3 -3 -12 -4 -19 -1 -8 3 -5 6 6 6 11 1 17 -2 13 -5z
m73 -9 c0 -8 -3 -15 -7 -15 -5 0 -8 -11 -8 -25 0 -14 3 -25 6 -25 3 0 4 -13 1
-30 -3 -19 -10 -30 -21 -30 -14 0 -14 2 -1 10 12 7 12 10 1 10 -8 0 -11 6 -7
17 4 9 1 20 -6 25 -9 5 -10 8 -1 8 8 0 10 12 6 35 -5 31 -3 35 16 35 12 0 21
-6 21 -15z m550 -29 c0 -8 -4 -17 -9 -20 -10 -7 -23 19 -14 28 11 11 23 6 23
-8z m17 -77 c7 -19 12 -62 12 -96 1 -50 -2 -61 -13 -57 -8 3 -16 15 -18 27 -2
13 -9 21 -18 19 -8 -2 -12 0 -8 3 4 4 1 17 -7 29 -19 26 -19 38 0 82 18 43 36
40 52 -7z m-133 -88 c3 -5 -1 -14 -9 -21 -13 -11 -14 -10 -9 5 6 14 4 16 -6
10 -9 -5 -11 -4 -6 3 9 14 23 15 30 3z m-436 -29 c3 -9 -2 -13 -14 -10 -9 1
-19 9 -22 16 -3 9 2 13 14 10 9 -1 19 -9 22 -16z m236 -25 c25 -23 46 -45 46
-49 0 -4 -16 0 -35 8 -40 16 -80 20 -56 5 10 -7 -5 -10 -44 -10 -33 0 -63 3
-67 5 -16 10 22 64 50 70 15 3 32 7 37 9 20 7 24 4 69 -38z m267 -4 c14 -37
11 -90 -6 -107 -16 -15 -85 -39 -93 -32 -2 3 1 13 7 24 16 30 13 49 -4 26 -14
-19 -14 -19 -15 1 0 45 21 95 48 109 32 17 51 11 63 -21z m-453 -135 c-1 -65
-2 -67 -5 -20 -4 46 -6 52 -19 41 -12 -10 -17 -10 -27 0 -9 10 -8 11 6 6 16
-7 22 3 18 28 -1 5 3 6 9 2 5 -3 10 -1 10 4 0 6 2 11 5 11 3 0 4 -33 3 -72z
m-28 -12 c0 -3 -4 -8 -10 -11 -5 -3 -10 -1 -10 4 0 6 5 11 10 11 6 0 10 -2 10
-4z m855 -6 c3 -5 1 -10 -4 -10 -6 0 -11 5 -11 10 0 6 2 10 4 10 3 0 8 -4 11
-10z"/>
<path d="M925 1390 c3 -5 11 -10 16 -10 6 0 7 5 4 10 -3 6 -11 10 -16 10 -6 0
-7 -4 -4 -10z"/>
<path d="M885 1300 c3 -5 8 -10 11 -10 2 0 4 5 4 10 0 6 -5 10 -11 10 -5 0 -7
-4 -4 -10z"/>
<path d="M1040 1155 c0 -8 2 -15 4 -15 2 0 6 7 10 15 3 8 1 15 -4 15 -6 0 -10
-7 -10 -15z"/>
<path d="M1040 965 c0 -8 2 -15 4 -15 2 0 6 7 10 15 3 8 1 15 -4 15 -6 0 -10
-7 -10 -15z"/>
<path d="M995 900 c4 -6 11 -8 16 -5 14 9 11 15 -7 15 -8 0 -12 -5 -9 -10z"/>
<path d="M506 745 c-9 -26 -7 -32 5 -12 6 10 9 21 6 23 -2 3 -7 -2 -11 -11z"/>
<path d="M441 684 c0 -11 3 -14 6 -6 3 7 2 16 -1 19 -3 4 -6 -2 -5 -13z"/>
<path d="M510 671 c0 -6 5 -13 10 -16 6 -3 10 1 10 9 0 9 -4 16 -10 16 -5 0
-10 -4 -10 -9z"/>
<path d="M515 550 c-3 -5 -1 -10 4 -10 6 0 11 5 11 10 0 6 -2 10 -4 10 -3 0
-8 -4 -11 -10z"/>
<path d="M310 463 c5 -2 7 -10 3 -16 -13 -21 -11 -36 3 -30 16 6 12 46 -5 49
-6 1 -7 0 -1 -3z"/>
<path d="M761 759 c-18 -23 -20 -34 -11 -42 8 -9 9 -7 4 8 -7 20 -7 20 14 1
12 -11 22 -14 22 -8 0 7 -4 12 -9 12 -6 0 -6 12 -1 30 5 17 8 30 6 30 -1 0
-13 -14 -25 -31z"/>
<path d="M708 653 c7 -3 16 -2 19 1 4 3 -2 6 -13 5 -11 0 -14 -3 -6 -6z"/>
<path d="M690 624 c0 -8 5 -12 10 -9 6 3 10 10 10 16 0 5 -4 9 -10 9 -5 0 -10
-7 -10 -16z"/>
<path d="M1919 1517 c8 -10 12 -31 9 -52 -2 -19 0 -35 5 -35 15 0 3 93 -13 98
-13 5 -13 3 -1 -11z"/>
<path d="M1328 1503 c7 -3 16 -2 19 1 4 3 -2 6 -13 5 -11 0 -14 -3 -6 -6z"/>
<path d="M1340 1480 c0 -5 5 -10 11 -10 5 0 7 5 4 10 -3 6 -8 10 -11 10 -2 0
-4 -4 -4 -10z"/>
<path d="M1395 1470 c3 -5 8 -10 11 -10 2 0 4 5 4 10 0 6 -5 10 -11 10 -5 0
-7 -4 -4 -10z"/>
<path d="M1690 1420 c0 -20 -2 -22 -10 -10 -7 11 -10 7 -10 -18 0 -40 20 -39
34 1 7 19 6 31 -2 39 -9 9 -12 6 -12 -12z"/>
<path d="M1744 1291 c1 -163 12 -184 16 -31 4 131 1 180 -9 180 -4 0 -8 -67
-7 -149z"/>
<path d="M1633 1395 c0 -22 2 -30 4 -17 2 12 2 30 0 40 -3 9 -5 -1 -4 -23z"/>
<path d="M1376 1395 c4 -8 10 -15 15 -15 5 0 9 7 9 15 0 8 -7 15 -15 15 -9 0
-12 -6 -9 -15z"/>
<path d="M1333 1346 c14 -14 21 -16 30 -7 8 8 8 11 0 11 -6 0 -20 3 -30 7 -17
7 -17 6 0 -11z"/>
<path d="M2175 1306 c-42 -18 -83 -69 -91 -114 -12 -63 -33 -102 -61 -113 -20
-7 -24 -12 -14 -18 11 -7 11 -10 0 -14 -12 -5 -12 -6 0 -6 7 -1 22 -12 33 -26
18 -23 56 -37 43 -15 -3 6 1 10 9 10 19 0 21 21 4 38 -9 9 -9 18 0 37 7 14 12
45 12 68 0 54 11 72 41 64 23 -6 23 -5 5 8 -18 14 -15 20 7 16 5 -1 6 3 2 8
-7 12 26 31 54 31 79 0 61 -142 -24 -192 -27 -15 -34 -16 -58 -3 -15 7 -27 9
-27 4 0 -14 51 -31 76 -25 18 5 21 2 17 -13 -2 -10 2 -24 9 -32 8 -8 18 -29
24 -48 8 -31 11 -33 25 -18 12 12 19 13 27 5 19 -19 26 -2 23 55 -1 34 3 59
13 72 20 26 20 114 1 162 -16 40 -61 73 -98 73 -12 -1 -36 -7 -52 -14z m105
-169 c0 -2 -10 -12 -22 -23 l-23 -19 19 23 c18 21 26 27 26 19z"/>
<path d="M2225 1180 c3 -5 11 -10 16 -10 6 0 7 5 4 10 -3 6 -11 10 -16 10 -6
0 -7 -4 -4 -10z"/>
<path d="M1500 1000 c-9 -6 -10 -10 -3 -10 6 0 15 5 18 10 8 12 4 12 -15 0z"/>
<path d="M636 933 c5 -5 12 -12 15 -16 3 -5 9 -2 12 7 5 12 0 16 -15 16 -12 0
-17 -3 -12 -7z"/>
<path d="M1510 911 c0 -5 9 -7 20 -4 11 3 20 7 20 9 0 2 -9 4 -20 4 -11 0 -20
-4 -20 -9z"/>
<path d="M2165 560 c4 -6 11 -8 16 -5 14 9 11 15 -7 15 -8 0 -12 -5 -9 -10z"/>
<path d="M1188 428 c5 -5 16 -8 23 -6 8 3 3 7 -10 11 -17 4 -21 3 -13 -5z"/>
<path d="M1215 370 c-3 -6 1 -7 9 -4 18 7 21 14 7 14 -6 0 -13 -4 -16 -10z"/>
<path d="M285 282 c-10 -7 -18 -32 -10 -32 2 0 9 9 15 20 12 22 11 24 -5 12z"/>
<path d="M1374 235 c8 -8 17 -15 20 -15 3 0 6 7 6 15 0 9 -9 15 -21 15 -18 0
-19 -2 -5 -15z"/>
<path d="M1491 224 c0 -11 3 -14 6 -6 3 7 2 16 -1 19 -3 4 -6 -2 -5 -13z"/>
<path d="M300 166 c0 -2 7 -7 16 -10 8 -3 12 -2 9 4 -6 10 -25 14 -25 6z"/>
<path d="M2115 160 c-3 -5 -1 -10 4 -10 6 0 11 5 11 10 0 6 -2 10 -4 10 -3 0
-8 -4 -11 -10z"/>
<path d="M1908 153 c6 -2 18 -2 25 0 6 3 1 5 -13 5 -14 0 -19 -2 -12 -5z"/>
<path d="M1890 131 c0 -6 5 -13 10 -16 6 -3 10 1 10 9 0 9 -4 16 -10 16 -5 0
-10 -4 -10 -9z"/>
<path d="M1270 100 c0 -11 4 -20 8 -20 4 0 8 9 8 20 0 11 -4 20 -8 20 -4 0 -8
-9 -8 -20z"/>
<path d="M960 60 c0 -5 4 -10 9 -10 6 0 13 5 16 10 3 6 -1 10 -9 10 -9 0 -16
-4 -16 -10z"/>
<path d="M2145 40 c4 -6 11 -8 16 -5 14 9 11 15 -7 15 -8 0 -12 -5 -9 -10z"/>
<path d="M2088 17 c4 -14 7 -16 13 -5 12 19 11 25 -5 25 -8 0 -11 -8 -8 -20z"/>
<path d="M1240 12 c0 -4 10 -9 22 -9 18 -2 20 0 8 7 -18 12 -30 13 -30 2z"/>
</g>
</svg>

" />
</svg>
