<svg
  xmlns="http://www.w3.org/2000/svg"
  width="current"
  height="current"
  viewBox="0 0 24 24"
>
  <path fill="current" fill-rule="evenodd" d="<?xml version="1.0" standalone="no"?>
<?xml version="1.0" standalone="no"?>
<!DOCTYPE svg PUBLIC "-//W3C//DTD SVG 20010904//EN"
 "http://www.w3.org/TR/2001/REC-SVG-20010904/DTD/svg10.dtd">
<svg version="1.0" xmlns="http://www.w3.org/2000/svg"
 width="267.000000pt" height="189.000000pt" viewBox="0 0 267.000000 189.000000"
 preserveAspectRatio="xMidYMid meet">

<g transform="translate(0.000000,189.000000) scale(0.100000,-0.100000)"
fill="#000000" stroke="none">
<path d="M6 1548 c5 -189 8 -399 6 -467 -3 -94 0 -126 10 -132 10 -7 9 -9 -4
-9 -10 0 -18 -4 -18 -10 0 -5 7 -10 15 -10 21 0 19 -18 -2 -23 -12 -3 -10 -5
7 -6 16 -1 29 -10 36 -25 11 -23 9 -25 -22 -31 -29 -5 -33 -9 -31 -35 1 -22 7
-30 20 -30 14 0 17 5 12 19 -3 11 -1 22 5 26 5 3 10 -2 10 -14 0 -10 6 -21 12
-24 7 -2 -4 -10 -25 -17 l-37 -14 0 -373 0 -373 1335 0 1335 0 0 905 c-1 577
-4 904 -10 900 -6 -4 -10 -16 -11 -28 -1 -20 -2 -20 -9 3 -5 16 -8 19 -9 8 -1
-11 -6 -15 -16 -12 -11 4 -15 -1 -16 -17 -1 -17 -3 -19 -6 -6 -5 20 -14 22
-31 5 -9 -9 -12 -9 -12 2 0 7 -3 11 -6 8 -8 -9 7 -79 16 -73 4 3 2 -12 -6 -33
-7 -20 -14 -55 -14 -77 -2 -55 -7 -35 -15 58 -11 124 -25 79 -25 -79 0 -94 -4
-143 -10 -139 -5 3 -10 -1 -10 -9 0 -24 -1 -30 -10 -47 -5 -8 -5 -22 0 -30 7
-10 4 -16 -8 -21 -29 -11 -40 -9 -45 10 -4 13 -5 14 -6 1 0 -8 -16 -23 -33
-32 -29 -14 -30 -16 -10 -16 28 -1 27 -9 -3 -46 l-24 -29 -12 29 c-7 18 -12
90 -13 172 0 78 -3 139 -6 136 -3 -2 -8 -77 -12 -166 -9 -210 -11 -221 -44
-265 l-29 -37 27 17 26 17 -16 -41 c-15 -39 -56 -73 -122 -105 -14 -6 -19 -12
-12 -12 7 -1 22 4 33 9 15 8 19 7 19 -4 0 -16 -53 -46 -82 -46 -10 0 -18 -4
-18 -10 0 -5 -6 -10 -12 -10 -7 0 -24 -12 -37 -25 -12 -14 -27 -22 -32 -19 -6
3 -15 1 -22 -4 -13 -11 -60 -23 -158 -42 -53 -10 -56 -12 -52 -38 10 -81 12
-105 7 -87 -3 11 -10 24 -15 30 -12 12 -12 -25 0 -44 5 -8 3 -27 -5 -48 -8
-19 -13 -48 -11 -66 2 -18 2 -24 0 -14 -2 9 -8 15 -13 12 -5 -3 -14 9 -19 27
-7 24 -9 27 -10 11 -1 -12 3 -33 9 -47 5 -14 7 -40 3 -56 -5 -28 -9 -30 -33
-25 -16 3 -31 1 -35 -4 -3 -6 -2 -11 3 -11 6 0 13 -7 16 -16 3 -8 2 -12 -3 -9
-5 3 -12 1 -16 -5 -3 -5 -1 -10 4 -10 21 0 11 -19 -11 -23 -13 -2 -1 -5 25 -6
59 -1 61 -24 3 -29 -27 -2 -36 0 -31 8 5 8 -1 7 -16 -2 -16 -9 -58 -13 -131
-13 -77 0 -109 -4 -113 -13 -6 -17 -26 -15 -40 4 -6 9 -29 18 -51 20 -21 2
-58 6 -80 9 -24 4 -50 2 -62 -4 -16 -8 -21 -7 -26 4 -3 8 -11 15 -18 15 -10 0
-10 -2 0 -9 22 -14 -46 -22 -164 -20 -69 1 -104 5 -101 12 5 16 194 22 213 7
11 -10 14 -9 14 3 0 11 14 18 48 22 26 4 74 15 106 26 33 10 84 19 113 19 29
0 63 5 76 12 12 6 29 14 37 18 8 4 20 17 26 29 6 12 14 21 18 19 9 -5 38 41
63 97 l21 50 -76 9 c-42 5 -80 14 -84 20 -4 6 -10 7 -14 3 -4 -4 -2 -13 4 -19
7 -7 12 -16 12 -21 0 -5 -7 -1 -16 7 -8 9 -31 16 -49 16 -23 0 -38 6 -44 19
-10 17 -6 19 34 23 25 2 45 -1 45 -5 0 -5 6 -7 13 -4 6 2 11 10 9 16 -3 14 34
14 113 1 33 -5 67 -8 76 -5 8 3 25 26 38 51 l22 46 -60 -4 c-33 -2 -59 -2 -59
1 2 20 -4 30 -19 34 -12 3 -9 5 8 6 16 1 29 -5 33 -14 8 -21 90 -20 143 3 34
13 42 21 37 36 -5 16 -3 18 22 12 16 -4 30 -11 32 -15 1 -5 19 -3 40 5 29 10
36 17 35 34 -2 12 1 19 7 15 6 -3 10 -1 10 4 0 6 15 11 34 11 27 0 39 7 60 34
14 19 26 44 26 55 0 12 4 21 9 21 5 0 7 -10 5 -22 -2 -13 2 -4 10 18 8 23 18
50 24 60 5 11 12 31 16 45 5 24 3 27 -23 25 -38 -2 -49 -12 -22 -21 12 -3 21
-10 21 -15 0 -11 -29 -1 -46 14 -8 8 -2 17 22 33 34 24 49 29 40 15 -3 -5 1
-9 10 -9 10 0 12 7 8 20 -3 11 -2 17 2 15 5 -3 18 -2 29 2 13 5 24 2 32 -9 11
-14 12 -12 13 14 0 34 -8 49 -30 58 -11 4 -9 6 6 6 11 1 25 -4 31 -10 9 -9 18
-8 38 5 25 17 28 17 46 0 22 -20 49 -27 49 -14 0 5 -3 11 -7 13 -5 3 -6 99 -4
214 2 120 7 193 11 173 l7 -35 2 42 c0 25 -4 43 -11 46 -9 4 -10 8 -3 14 6 4
11 38 12 76 l1 67 -54 0 -54 0 0 -69 c0 -39 -5 -71 -10 -73 -13 -4 -17 -37
-19 -132 l-1 -68 -35 4 c-33 4 -35 2 -36 -27 -2 -26 -2 -27 -6 -5 -2 14 -6 32
-9 40 -3 8 -6 57 -8 110 -5 128 -5 130 -15 130 -5 0 -8 -46 -7 -102 3 -108 -6
-147 -28 -129 -7 6 -17 7 -21 3 -5 -4 -5 2 -2 13 7 19 6 19 -7 1 -8 -10 -19
-16 -23 -13 -9 6 -14 -30 -17 -112 -2 -53 20 -49 26 4 6 53 33 90 52 72 15
-13 17 -22 19 -78 l2 -41 64 7 c45 5 61 4 57 -4 -4 -6 0 -11 9 -11 27 0 -2
-89 -30 -91 -8 -1 -24 -3 -35 -4 -11 -1 -25 -3 -31 -4 -5 0 -7 -6 -4 -11 5 -8
-29 -10 -104 -9 -101 1 -139 10 -114 28 5 3 23 30 41 59 27 43 32 62 32 112 0
58 -1 60 -25 60 -31 0 -43 25 -26 53 10 15 10 21 1 27 -7 5 -11 43 -11 113 0
64 -4 109 -10 113 -6 3 -8 12 -5 20 4 11 -19 14 -129 13 l-135 0 0 -40 c0 -28
4 -39 15 -39 8 0 15 -9 15 -20 0 -13 -5 -18 -15 -14 -11 5 -15 -1 -15 -21 0
-15 4 -24 10 -20 6 4 10 -27 10 -84 0 -54 -4 -91 -10 -91 -6 0 -10 -39 -10
-98 0 -90 2 -100 23 -120 29 -27 41 -28 27 -2 -6 11 -7 19 -2 18 6 -2 19 7 29
19 20 23 20 18 23 365 0 29 3 36 15 32 8 -4 15 -12 15 -20 0 -8 4 -14 9 -14 5
0 7 9 4 20 -3 11 -12 20 -20 20 -8 0 -11 4 -8 10 4 6 -1 7 -11 3 -14 -5 -16
-3 -11 11 4 10 7 29 7 43 0 18 4 24 14 20 8 -3 17 -1 19 6 3 7 3 -5 0 -26 -5
-32 -3 -36 11 -31 12 5 16 0 17 -17 1 -17 3 -19 6 -6 2 9 9 17 14 17 5 0 10
12 10 28 l1 27 8 -30 c13 -50 11 -68 -4 -62 -20 8 -28 -4 -12 -17 12 -9 15
-49 16 -191 1 -99 0 -189 -2 -200 -7 -34 -20 -55 -32 -54 -6 1 -27 0 -46 -1
-32 -2 -33 -3 -10 -9 l25 -7 -22 -8 c-27 -9 -31 -42 -5 -50 9 -2 -9 -2 -41 1
-57 5 -57 5 -100 -38 -23 -24 -57 -62 -74 -84 l-30 -39 -89 82 c-66 61 -95 82
-116 82 -15 0 -30 5 -33 10 -3 6 -11 10 -16 10 -6 0 -8 -4 -5 -8 2 -4 -4 -8
-14 -9 -11 -1 -22 2 -25 7 -3 5 -12 7 -20 3 -11 -4 -15 3 -15 25 0 17 -6 32
-15 36 -8 3 -15 1 -15 -4 0 -12 -40 -13 -56 -2 -8 5 -13 78 -15 229 -2 123 -8
223 -12 223 -5 0 -6 4 -2 9 3 6 -3 15 -14 20 -28 16 -35 13 -20 -6 8 -9 9 -14
3 -10 -19 11 -26 -71 -19 -241 3 -104 2 -150 -4 -135 -6 12 -11 51 -12 86 -2
63 -2 64 -31 64 l-28 0 2 -104 c2 -77 0 -103 -9 -103 -7 0 -13 9 -13 21 0 32
-25 49 -71 49 -23 0 -39 -3 -36 -6 3 -4 2 -15 -4 -26 -8 -15 -7 -24 7 -39 10
-11 12 -19 6 -19 -7 0 -12 -6 -12 -13 0 -9 -9 -12 -29 -9 -16 2 -32 -1 -35 -7
-4 -6 -15 -11 -24 -11 -15 0 -15 2 -2 10 13 8 13 10 -2 10 -9 0 -18 -4 -20 -9
-1 -5 -12 -3 -22 5 -17 12 -19 25 -18 85 0 40 6 77 12 83 5 5 10 55 10 114 0
58 4 101 9 98 5 -4 5 10 0 32 -11 48 -11 115 -1 108 5 -3 9 1 9 9 0 8 -4 12
-9 9 -4 -3 -8 9 -8 25 l0 31 -143 0 -142 0 3 -47 c3 -43 1 -46 -12 -30 -9 12
-16 14 -21 7 -3 -5 -11 -8 -16 -5 -5 4 -9 1 -9 -5 0 -7 -7 -7 -22 2 -40 22
-47 19 -37 -15 12 -44 11 -54 -4 -34 -17 23 -61 28 -87 10 -19 -13 -24 -13
-31 -2 -5 8 -9 24 -9 37 0 13 -4 21 -9 17 -5 -3 -16 1 -24 9 -8 8 -17 12 -21
9 -3 -3 -10 6 -15 21 -6 14 -14 26 -17 26 -4 0 -3 -154 2 -342z m1754 311 c0
-6 -4 -7 -10 -4 -5 3 -10 11 -10 16 0 6 5 7 10 4 6 -3 10 -11 10 -16z m-1203
-46 c-3 -10 -5 -4 -5 12 0 17 2 24 5 18 2 -7 2 -21 0 -30z m50 -105 c-2 -24
-4 -5 -4 42 0 47 2 66 4 43 2 -24 2 -62 0 -85z m-530 80 c-3 -8 -6 -5 -6 6 -1
11 2 17 5 13 3 -3 4 -12 1 -19z m103 -123 c0 -8 -2 -15 -4 -15 -2 0 -6 7 -10
15 -3 8 -1 15 4 15 6 0 10 -7 10 -15z m427 -92 c-2 -16 -4 -3 -4 27 0 30 2 43
4 28 2 -16 2 -40 0 -55z m2000 71 c-3 -3 -12 -4 -19 -1 -8 3 -5 6 6 6 11 1 17
-2 13 -5z m-2081 -80 c-4 -9 -9 -15 -11 -12 -3 3 -3 13 1 22 4 9 9 15 11 12 3
-3 3 -13 -1 -22z m1 -116 c-3 -8 -6 -5 -6 6 -1 11 2 17 5 13 3 -3 4 -12 1 -19z
m-237 -8 c0 -5 -4 -10 -10 -10 -5 0 -10 5 -10 10 0 6 5 10 10 10 6 0 10 -4 10
-10z m1567 -82 c-2 -18 -4 -4 -4 32 0 36 2 50 4 33 2 -18 2 -48 0 -65z m-931
-25 c-11 -11 -26 10 -26 35 l1 27 15 -28 c9 -16 13 -31 10 -34z m-620 -50 c-2
-10 0 -20 4 -23 15 -10 -14 -75 -35 -78 -17 -2 -18 -1 -5 10 9 8 14 26 12 46
-2 17 1 32 7 32 6 0 8 7 5 15 -4 8 -2 15 4 15 6 0 9 -8 8 -17z m31 2 c0 -8 -4
-12 -9 -9 -5 3 -6 10 -3 15 9 13 12 11 12 -6z m773 -6 c0 -6 -4 -7 -10 -4 -5
3 -10 11 -10 16 0 6 5 7 10 4 6 -3 10 -11 10 -16z m646 -18 c-3 -5 1 -12 10
-15 8 -3 12 -2 9 4 -9 15 19 12 41 -5 18 -14 17 -14 -14 -15 -27 0 -64 11 -80
25 -2 2 2 13 8 26 11 20 13 20 22 6 5 -10 7 -21 4 -26z m674 29 c-13 -8 -12
-10 3 -10 13 0 17 -8 16 -37 0 -21 -3 -31 -7 -23 -4 10 -10 1 -18 -25 -7 -22
-13 -32 -13 -22 -1 10 -5 16 -9 13 -12 -7 -12 54 0 87 6 15 18 27 27 27 14 0
14 -2 1 -10z m-370 -20 c0 -5 -5 -10 -11 -10 -5 0 -7 5 -4 10 3 6 8 10 11 10
2 0 4 -4 4 -10z m-1803 -47 c-3 -10 -5 -2 -5 17 0 19 2 27 5 18 2 -10 2 -26 0
-35z m493 33 c0 -8 12 -17 28 -19 22 -4 21 -5 -8 -5 -19 1 -42 -2 -51 -6 -9
-4 -38 -5 -65 -3 -48 3 -48 3 11 5 43 2 56 5 45 12 -13 9 -13 10 0 12 8 1 -14
4 -50 8 l-65 7 78 1 c61 2 77 -1 77 -12z m287 -12 c-3 -3 -12 -4 -19 -1 -8 3
-5 6 6 6 11 1 17 -2 13 -5z m46 -1 c-7 -2 -19 -2 -25 0 -7 3 -2 5 12 5 14 0
19 -2 13 -5z m801 -27 c-3 -9 -10 -13 -16 -10 -5 3 -4 12 3 20 15 18 22 13 13
-10z m496 4 c0 -11 -4 -20 -9 -20 -5 0 -7 9 -4 20 3 11 7 20 9 20 2 0 4 -9 4
-20z m-1997 -9 c-3 -11 -11 -22 -19 -25 -17 -6 -17 -1 -4 25 14 25 30 25 23 0z
m36 -26 c0 -5 -4 -3 -9 5 -5 8 -9 22 -9 30 0 16 17 -16 18 -35z m1529 33 c-6
-18 -28 -21 -28 -4 0 9 7 16 16 16 9 0 14 -5 12 -12z m32 -2 c0 -8 -4 -18 -10
-21 -5 -3 -10 3 -10 14 0 12 5 21 10 21 6 0 10 -6 10 -14z m-1282 -33 c-15 -2
-42 -2 -60 0 -18 2 -6 4 27 4 33 0 48 -2 33 -4z m-262 -16 c2 -2 -3 -21 -11
-42 -14 -31 -20 -36 -40 -33 l-24 5 20 -28 c11 -16 27 -29 35 -29 16 0 18 -9
5 -29 -6 -10 -10 -10 -16 -1 -5 8 -12 7 -25 -5 -16 -15 -17 -12 -24 47 -3 34
-12 71 -19 82 -23 34 -11 45 45 41 28 -2 52 -6 54 -8z m557 3 c7 0 4 -5 -5
-11 -24 -13 -23 -29 2 -29 24 0 27 -32 5 -50 -12 -10 -15 -9 -15 4 0 10 -5 14
-10 11 -6 -4 -8 -11 -5 -16 4 -5 -2 -9 -12 -10 -14 0 -15 -2 -3 -7 23 -10 23
-32 0 -32 -11 0 -20 -4 -20 -10 0 -5 -10 -10 -22 -9 -13 0 -17 3 -10 6 16 6
16 23 -1 23 -8 0 -14 7 -14 15 0 8 4 12 8 9 15 -9 18 13 4 32 -16 21 -20 58
-6 50 5 -3 11 0 14 8 6 15 42 26 65 20 8 -2 19 -4 25 -4z m14 -26 c-3 -3 -12
-4 -19 -1 -8 3 -5 6 6 6 11 1 17 -2 13 -5z m113 -36 c0 -32 -3 -39 -10 -28 -8
13 -10 12 -10 -2 0 -10 5 -18 11 -18 5 0 9 -8 8 -17 -1 -10 -1 -21 0 -25 0 -5
1 -11 0 -14 0 -4 5 -10 11 -14 7 -4 1 -7 -15 -7 -19 0 -23 3 -16 10 16 16 13
27 -6 28 -17 0 -16 1 0 8 17 6 16 8 -7 21 -44 23 -32 100 16 100 15 0 18 -8
18 -42z m614 -18 c18 -39 24 -65 19 -75 -7 -12 -13 -6 -27 25 -10 23 -20 40
-22 38 -2 -2 3 -31 11 -63 19 -78 18 -116 -1 -45 -8 30 -18 64 -24 75 -23 50
-38 94 -32 99 3 3 15 6 27 6 17 0 28 -13 49 -60z m-555 -14 c-9 -8 -10 -7 -5
7 3 10 7 28 7 40 2 16 3 14 6 -7 3 -16 -1 -34 -8 -40z m475 -59 l5 -52 -10 45
c-6 25 -13 52 -17 60 -3 8 -7 26 -9 40 -2 21 0 19 12 -8 8 -18 17 -56 19 -85z
m-814 13 c-11 -7 -11 -10 -2 -10 7 0 10 -5 7 -10 -8 -13 -25 -3 -25 16 0 8 8
14 18 14 14 0 15 -2 2 -10z m-20 -25 c7 -8 19 -15 27 -15 8 0 11 -5 7 -11 -4
-7 -10 -7 -16 -1 -6 6 -18 8 -27 5 -9 -4 -13 -3 -9 2 4 4 3 14 -3 22 -7 8 -8
13 -1 13 5 0 15 -7 22 -15z m272 -7 c-8 -8 -8 -15 -1 -24 17 -20 1 -34 -38
-34 -44 0 -40 8 5 12 18 1 32 6 32 11 0 5 -9 6 -19 2 -11 -3 -22 -1 -26 5 -4
6 -1 9 6 8 7 -2 14 3 15 10 3 21 4 22 21 22 13 0 14 -3 5 -12z m-294 -10 c-2
-7 5 -13 14 -13 9 0 20 -3 23 -7 4 -4 13 -4 21 -1 8 3 14 0 14 -6 0 -15 -23
-14 -39 2 -11 10 -13 9 -9 -3 3 -8 19 -16 37 -18 27 -3 30 -6 20 -18 -9 -11
-8 -14 5 -14 21 0 32 -46 16 -65 -7 -9 -18 -14 -24 -12 -6 2 -16 -1 -22 -7 -8
-8 -3 -14 20 -21 20 -7 31 -17 32 -30 0 -23 -26 -75 -39 -75 -4 0 -5 -5 -2
-10 3 -6 12 -37 19 -71 6 -33 16 -60 21 -60 6 -1 17 -23 25 -51 l16 -49 13 50
c10 40 10 65 1 121 -6 38 -9 73 -6 78 3 6 -1 15 -10 22 -12 11 -12 15 -2 21 9
6 7 9 -7 9 -19 0 -19 0 0 13 34 22 124 10 110 -14 -4 -5 -10 -32 -14 -59 -6
-39 -5 -50 5 -50 8 0 14 -9 14 -19 0 -23 -16 -36 -25 -21 -4 6 -11 8 -16 5
-11 -7 -12 -85 -1 -85 4 0 7 -28 7 -62 0 -58 -2 -63 -25 -69 -45 -13 -50 -10
-50 24 -1 29 -2 30 -13 12 -6 -11 -12 -24 -12 -30 0 -13 -65 -19 -65 -6 0 5
-8 12 -17 15 -10 3 0 4 22 2 22 -2 35 -2 29 0 -7 3 -10 21 -6 49 3 31 0 52
-12 69 -9 14 -16 37 -16 51 0 14 -4 25 -9 25 -14 0 -32 82 -28 128 3 23 0 42
-4 42 -5 0 -9 -10 -9 -21 0 -17 -4 -20 -22 -16 -20 5 -21 4 -7 -6 20 -15 30
-55 17 -63 -6 -4 -14 -1 -18 6 -4 7 -12 10 -18 6 -36 -22 -59 49 -26 81 11 11
12 19 5 26 -16 16 -13 47 4 47 8 0 15 5 15 11 0 8 13 9 40 5 33 -5 41 -3 46
11 3 10 10 26 15 35 5 10 5 19 -1 23 -13 8 -52 -14 -45 -26 8 -12 -2 -12 -26
1 -11 7 -19 7 -19 1 0 -5 14 -12 31 -16 41 -9 31 -17 -10 -9 -43 9 -49 30 -16
56 20 16 24 23 13 29 -9 6 -10 9 -1 9 7 0 10 7 7 15 -4 8 -1 15 5 15 6 0 10
-6 9 -12z m170 -25 c-10 -2 -26 -2 -35 0 -10 3 -2 5 17 5 19 0 27 -2 18 -5z
m451 -19 c2 -2 -19 -4 -47 -4 -28 0 -54 5 -57 10 -5 8 10 9 47 4 29 -4 55 -8
57 -10z m360 -28 c-9 -8 -10 -7 -5 7 3 10 7 24 7 30 1 7 3 4 6 -7 3 -10 -1
-23 -8 -30z m-1054 14 c3 -5 1 -10 -4 -10 -6 0 -11 5 -11 10 0 6 2 10 4 10 3
0 8 -4 11 -10z m276 3 c0 -5 2 -20 4 -34 3 -22 0 -26 -16 -22 -11 3 -19 0 -19
-7 0 -6 9 -14 20 -17 11 -3 20 -10 20 -15 0 -5 -4 -7 -10 -3 -10 6 -50 -13
-62 -30 -18 -23 -10 62 8 97 11 21 11 28 1 31 -6 3 3 6 21 6 17 1 32 -2 33 -6z
m169 -3 c0 -5 -4 -10 -9 -10 -6 0 -13 5 -16 10 -3 6 1 10 9 10 9 0 16 -4 16
-10z m270 -24 c10 -27 2 -37 -11 -13 -8 13 -23 17 -69 17 -35 0 -60 4 -60 10
0 7 26 10 66 9 57 -2 67 -5 74 -23z m396 -4 c-18 -16 -18 -16 -6 6 6 13 14 21
18 18 3 -4 -2 -14 -12 -24z m408 3 c-16 -24 -54 -35 -54 -15 0 9 47 39 63 40
4 0 0 -11 -9 -25z m-1116 1 c8 -8 -26 -6 -73 4 -38 9 -37 9 14 5 29 -2 56 -6
59 -9z m37 -14 c-3 -3 -11 0 -18 7 -9 10 -8 11 6 5 10 -3 15 -9 12 -12z m125
4 c0 -3 -4 -8 -10 -11 -5 -3 -10 -1 -10 4 0 6 5 11 10 11 6 0 10 -2 10 -4z
m427 -12 c1 -5 -1 -15 -6 -23 -10 -16 -143 -17 -170 -1 -11 6 -12 9 -3 10 7 0
10 4 7 10 -4 6 10 8 37 4 24 -3 54 -1 68 4 29 12 63 10 67 -4z m-568 -10 c7
-7 -73 -2 -104 7 -20 5 -7 6 35 2 36 -3 67 -7 69 -9z m61 6 c0 -5 -5 -10 -11
-10 -5 0 -7 5 -4 10 3 6 8 10 11 10 2 0 4 -4 4 -10z m903 -7 c-7 -2 -13 -13
-13 -23 0 -10 6 -21 13 -23 7 -3 5 -6 -6 -6 -25 -1 -40 42 -18 51 9 4 21 7 26
7 6 -1 4 -3 -2 -6z m-683 -41 c0 -10 -8 -13 -27 -9 -33 6 -53 -1 -53 -19 0 -8
-5 -14 -11 -14 -5 0 -7 5 -4 10 9 15 -21 23 -53 14 l-27 -7 30 -7 30 -8 -28
-1 c-21 -1 -30 5 -34 19 -6 23 -19 26 -27 8 -3 -7 -3 -2 0 12 4 14 10 27 15
30 4 3 49 1 99 -4 68 -7 90 -12 90 -24z m-343 15 c43 11 114 -9 81 -22 -10 -4
-20 -16 -24 -27 -5 -16 -8 -18 -15 -7 -6 11 -9 9 -9 -8 0 -12 -5 -25 -10 -28
-6 -4 -10 -3 -9 2 4 20 -2 32 -13 28 -18 -6 -30 4 -52 45 -17 30 -17 33 -3 21
13 -10 26 -11 54 -4z m-587 -7 c0 -5 -5 -10 -11 -10 -5 0 -7 5 -4 10 3 6 8 10
11 10 2 0 4 -4 4 -10z m1559 -27 c-1 -33 -2 -35 -8 -13 -4 14 -6 31 -3 38 8
22 12 13 11 -25z m108 6 c2 -11 -1 -18 -6 -14 -6 3 -9 14 -8 25 2 23 10 17 14
-11z m-964 -14 c-3 -8 0 -15 6 -15 6 0 11 -5 11 -11 0 -8 -4 -8 -14 0 -7 6
-22 9 -32 5 -16 -5 -16 -4 -4 5 8 6 11 11 6 11 -5 0 -3 7 4 15 15 18 31 10 23
-10z m-1073 -20 c-7 -8 -16 -12 -21 -9 -13 8 -1 24 18 24 13 0 13 -3 3 -15z
m1425 -14 c-6 -4 -32 -5 -60 -1 l-50 7 60 2 c34 0 55 -3 50 -8z m45 -1 c0 -5
-8 -10 -17 -10 -15 0 -16 2 -3 10 19 12 20 12 20 0z m-1462 -11 l27 -1 -25 -8
c-40 -13 -57 -11 -57 5 0 10 6 14 14 10 8 -3 27 -5 41 -6z m1652 -20 c0 -6 -4
-7 -10 -4 -5 3 -10 11 -10 16 0 6 5 7 10 4 6 -3 10 -11 10 -16z m-510 -9 c0
-13 -20 -13 -40 0 -12 8 -9 10 13 10 15 0 27 -4 27 -10z m1170 -48 c25 -21 26
-34 2 -24 -21 8 -82 58 -82 67 0 8 56 -22 80 -43z m-512 -21 c0 -27 -4 -55 -9
-62 -6 -9 -9 -10 -9 -2 0 6 -15 15 -32 19 -32 7 -33 8 -8 15 21 6 18 7 -17 8
-33 1 -41 4 -37 15 3 8 12 12 19 10 7 -3 16 -1 20 5 4 7 -3 11 -16 11 -29 0
-13 17 21 23 66 12 68 11 68 -42z m-1603 29 c3 -6 -1 -7 -9 -4 -18 7 -21 14
-7 14 6 0 13 -4 16 -10z m121 -25 c-13 -51 -26 -75 -41 -75 -9 0 -18 -7 -21
-15 -5 -11 -13 -7 -34 17 -16 17 -31 39 -33 50 -7 25 19 35 41 15 15 -13 19
-13 37 9 28 33 59 33 51 -1z m1764 8 c0 -12 -12 -14 -60 -11 -33 1 -60 0 -60
-4 0 -4 26 -9 58 -11 l57 -3 -66 -2 c-75 -2 -89 5 -57 29 30 23 128 25 128 2z
m73 10 c-7 -2 -19 -2 -25 0 -7 3 -2 5 12 5 14 0 19 -2 13 -5z m107 -3 c17 -10
14 -15 -17 -24 -19 -6 -23 -3 -23 13 0 22 16 27 40 11z m-90 -25 c0 -8 -9 -13
-20 -12 -11 1 -20 6 -20 12 0 6 9 11 20 12 11 1 20 -4 20 -12z m-842 -2 c-10
-2 -26 -2 -35 0 -10 3 -2 5 17 5 19 0 27 -2 18 -5z m572 -21 c0 -12 -3 -13
-12 -4 -7 7 -23 12 -36 12 -13 0 -21 4 -18 8 9 15 66 1 66 -16z m-1252 1 c-10
-2 -28 -2 -40 0 -13 2 -5 4 17 4 22 1 32 -1 23 -4z m431 -35 c5 -13 6 -27 3
-32 -6 -10 -20 19 -21 42 -1 20 9 14 18 -10z m-52 -30 c-3 -7 -5 -2 -5 12 0
14 2 19 5 13 2 -7 2 -19 0 -25z m112 -15 c2 -2 -5 -3 -17 -3 -14 0 -22 6 -22
16 0 14 3 15 18 3 9 -7 19 -15 21 -16z m141 23 c0 -3 -4 -8 -10 -11 -5 -3 -10
-1 -10 4 0 6 5 11 10 11 6 0 10 -2 10 -4z m597 -12 c-3 -3 -12 -4 -19 -1 -8 3
-5 6 6 6 11 1 17 -2 13 -5z m43 -24 c0 -5 -4 -10 -10 -10 -5 0 -10 5 -10 10 0
6 5 10 10 10 6 0 10 -4 10 -10z m-1560 -20 c0 -5 -7 -10 -15 -10 -9 0 -12 -6
-9 -17 5 -14 4 -15 -4 -4 -6 8 -15 10 -23 6 -8 -5 -5 1 5 13 20 23 46 29 46
12z m-137 -30 c3 -11 0 -23 -5 -27 -6 -3 -8 -1 -4 5 3 6 2 13 -3 17 -5 3 -14
-3 -20 -12 -9 -16 -10 -16 -11 4 0 12 7 23 18 26 9 3 18 5 18 6 1 0 4 -8 7
-19z m1567 -68 c0 -5 -40 -14 -89 -20 -107 -15 -114 -15 -106 -2 3 6 18 10 33
10 15 0 34 5 42 10 18 12 120 13 120 2z m-1183 -9 c-11 -3 -31 -19 -46 -35
-23 -26 -31 -29 -47 -20 -10 6 -13 12 -6 12 6 0 12 8 12 19 0 13 -7 19 -25 19
-14 0 -25 -4 -25 -9 0 -5 -8 -9 -17 -9 -15 0 -15 2 2 14 12 8 47 14 94 14 42
0 68 -2 58 -5z m-483 -32 c3 -4 22 -7 43 -5 47 5 24 -11 -27 -19 -30 -4 -36
-2 -36 14 0 20 11 25 20 10z m674 -148 l-2 -78 -3 65 c-2 35 -9 70 -15 77 -8
10 -6 13 6 13 14 0 16 -12 14 -77z m131 0 c-2 -79 -6 -70 -11 25 -2 28 0 52 5
52 4 0 6 -35 6 -77z m251 2 c0 -41 -4 -75 -8 -75 -5 0 -9 29 -9 64 -1 36 -4
69 -8 75 -3 6 1 11 9 11 13 0 16 -14 16 -75z m110 50 c0 -14 6 -25 13 -26 10
0 10 -2 0 -6 -7 -2 -13 -13 -13 -23 0 -10 -4 -22 -10 -25 -6 -4 -10 13 -10 44
0 30 -5 51 -12 54 -7 3 -3 6 10 6 17 1 22 -5 22 -24z m162 -21 l3 -46 26 21
c23 18 29 19 38 7 10 -12 8 -13 -7 -9 -11 2 -22 1 -25 -4 -9 -14 4 -54 14 -47
5 3 7 9 4 14 -9 14 45 24 58 11 8 -8 8 -11 0 -11 -6 0 -9 -9 -6 -20 5 -18 0
-20 -41 -20 -39 0 -46 3 -46 19 0 11 -4 23 -10 26 -5 3 -10 2 -10 -2 0 -5 -9
-9 -20 -9 -11 0 -20 6 -20 14 0 7 -4 10 -10 7 -5 -3 -10 -15 -10 -27 0 -18 4
-19 35 -14 22 4 35 3 35 -4 0 -5 -20 -10 -44 -10 -38 0 -45 3 -50 25 -4 14
-14 26 -24 26 -15 1 -15 2 1 6 13 3 17 11 14 24 -4 16 -1 19 14 14 11 -4 19
-2 19 4 0 6 -11 11 -25 11 -14 0 -25 5 -25 10 0 6 12 10 26 10 14 0 23 3 21 8
-3 4 10 8 28 9 34 3 34 2 37 -43z m98 21 c0 -29 30 -35 50 -10 12 14 15 14 31
-1 22 -20 24 -45 7 -62 -19 -19 -37 -14 -50 13 -12 27 -33 33 -41 13 -2 -7 -6
6 -8 30 -3 23 -1 42 3 42 5 0 8 -11 8 -25z m130 -11 c0 -21 4 -33 10 -29 6 3
10 1 10 -4 0 -6 -4 -11 -10 -11 -5 0 -10 -19 -10 -42 0 -23 -3 -38 -7 -34 -5
4 -6 34 -5 67 3 37 -1 65 -8 74 -10 12 -9 15 4 15 12 0 16 -9 16 -36z m-173
20 c-3 -3 -12 -4 -19 -1 -8 3 -5 6 6 6 11 1 17 -2 13 -5z m-767 -22 c0 -10 7
-27 15 -38 22 -28 18 -40 -6 -18 -21 19 -21 18 -40 -5 -10 -13 -19 -20 -19
-16 0 4 9 18 19 31 11 14 17 33 14 44 -3 11 0 20 6 20 6 0 11 -8 11 -18z m310
-4 c0 -20 -5 -23 -48 -25 -44 -1 -42 0 16 13 36 7 25 23 -20 27 l-43 4 48 1
c43 2 47 0 47 -20z m209 10 c-1 -7 -5 -24 -9 -38 -8 -24 -8 -23 -9 8 -1 21 -6
32 -16 32 -18 0 -21 -46 -2 -53 7 -3 5 -6 -5 -6 -11 -1 -18 6 -18 18 0 11 -3
26 -6 35 -5 13 1 16 30 16 23 0 36 -5 35 -12z m-366 -20 c15 -23 1 -48 -28
-48 -14 0 -25 2 -25 4 0 2 -3 11 -6 19 -6 16 23 50 39 44 6 -2 15 -10 20 -19z
m212 4 c-3 -3 -11 0 -18 7 -9 10 -8 11 6 5 10 -3 15 -9 12 -12z m31 -8 c-4
-15 -2 -33 6 -42 11 -15 11 -15 -3 -4 -13 10 -19 9 -29 -3 -25 -30 -29 -14 -5
21 14 20 25 41 25 45 0 5 3 9 6 9 3 0 3 -12 0 -26z m390 18 c-5 -8 -66 -4 -66
4 0 2 16 4 36 4 19 0 33 -4 30 -8z m-516 -69 c0 -11 7 -14 25 -11 14 3 28 1
31 -3 3 -5 -23 -8 -58 -8 -35 1 -53 4 -40 6 14 3 22 12 22 24 0 11 5 17 10 14
6 -3 10 -13 10 -22z m230 -14 c0 -17 5 -20 25 -17 14 3 28 1 31 -4 4 -5 -10
-8 -31 -6 -28 2 -40 9 -46 26 -6 16 -5 22 6 22 9 0 15 -9 15 -21z m-619 -94
c5 4 6 0 4 -7 -7 -18 -48 -18 -64 -1 -14 16 -7 17 20 3 15 -9 19 -7 20 7 0 11
3 13 6 5 2 -6 9 -10 14 -7z m1136 -11 c-3 -3 -12 -4 -19 -1 -8 3 -5 6 6 6 11
1 17 -2 13 -5z"/>
<path d="M2420 1260 c0 -5 5 -10 11 -10 5 0 7 5 4 10 -3 6 -8 10 -11 10 -2 0
-4 -4 -4 -10z"/>
<path d="M1080 1120 c0 -5 4 -10 9 -10 6 0 13 5 16 10 3 6 -1 10 -9 10 -9 0
-16 -4 -16 -10z"/>
<path d="M799 957 c6 -8 8 -17 4 -20 -3 -4 2 -7 12 -7 17 0 17 1 0 20 -20 22
-34 28 -16 7z"/>
<path d="M775 920 c3 -5 11 -10 16 -10 6 0 7 5 4 10 -3 6 -11 10 -16 10 -6 0
-7 -4 -4 -10z"/>
<path d="M728 743 c7 -3 16 -2 19 1 4 3 -2 6 -13 5 -11 0 -14 -3 -6 -6z"/>
<path d="M1578 863 c7 -3 16 -2 19 1 4 3 -2 6 -13 5 -11 0 -14 -3 -6 -6z"/>
<path d="M1133 825 c0 -8 4 -12 9 -9 4 3 8 9 8 15 0 5 -4 9 -8 9 -5 0 -9 -7
-9 -15z"/>
<path d="M1060 820 c0 -5 5 -10 11 -10 5 0 7 5 4 10 -3 6 -8 10 -11 10 -2 0
-4 -4 -4 -10z"/>
<path d="M1540 266 c0 -13 -6 -27 -12 -29 -8 -3 -6 -6 5 -6 12 -1 17 7 17 29
0 17 -2 30 -5 30 -3 0 -5 -11 -5 -24z"/>
<path d="M1560 230 c0 -5 5 -10 10 -10 6 0 10 5 10 10 0 6 -4 10 -10 10 -5 0
-10 -4 -10 -10z"/>
<path d="M1740 240 c0 -15 5 -20 18 -18 9 2 17 10 17 18 0 8 -8 16 -17 18 -13
2 -18 -3 -18 -18z"/>
<path d="M991 257 c-14 -17 3 -41 23 -34 9 4 16 13 16 21 0 19 -26 28 -39 13z"/>
<path d="M810 1859 c0 -17 4 -28 10 -24 6 3 10 17 10 31 0 13 -4 24 -10 24 -5
0 -10 -14 -10 -31z"/>
<path d="M961 1857 c-1 -25 4 -40 14 -43 19 -8 45 13 44 35 0 12 -2 11 -9 -4
-7 -17 -9 -15 -9 13 -1 45 -21 40 -22 -5 l-2 -38 -7 40 -7 40 -2 -38z"/>
<path d="M1120 1855 c0 -19 5 -35 10 -35 6 0 10 -7 10 -15 0 -8 -3 -15 -7 -15
-10 0 -16 -454 -8 -481 8 -25 17 -24 49 8 20 20 24 28 14 35 -10 6 -8 8 5 8
19 0 68 44 85 77 7 12 25 24 41 28 32 7 63 36 45 42 -17 6 -2 84 19 97 13 8
20 8 27 -4 5 -8 6 -18 3 -23 -3 -5 0 -12 6 -16 6 -4 9 -15 5 -24 -3 -9 -10
-15 -14 -12 -11 7 -6 -35 8 -60 24 -45 40 -104 35 -126 -6 -22 -5 -23 13 -9
10 8 22 19 25 24 7 8 45 -12 89 -48 14 -11 5 0 -19 26 -24 26 -47 46 -50 44
-3 -2 -7 15 -8 38 l-1 41 24 -30 24 -30 0 83 c0 87 -1 88 -51 83 -17 -2 -29
52 -29 129 0 48 -23 71 -47 47 -15 -15 -15 -18 0 -35 22 -24 20 -75 -2 -62 -8
4 -25 4 -38 -1 -20 -7 -23 -5 -23 14 0 12 9 33 20 47 13 18 16 28 8 37 -13 17
-44 17 -46 1 -1 -7 -5 -39 -8 -71 -5 -48 -11 -61 -30 -69 -13 -6 -20 -16 -17
-24 3 -8 -1 -14 -10 -14 -9 0 -21 -8 -26 -17 -9 -16 -10 -15 -11 5 0 13 -4 21
-8 18 -4 -2 -9 7 -10 22 -1 15 -7 29 -12 30 -13 5 -13 102 0 102 6 0 10 14 10
30 0 20 -5 30 -15 30 -12 0 -15 -19 -16 -107 -1 -62 -4 -95 -8 -78 -5 21 -12
29 -24 27 -14 -2 -17 5 -17 45 l1 48 13 -30 c13 -29 13 -28 20 42 5 48 13 73
22 77 9 3 12 1 9 -4 -3 -6 -1 -10 4 -10 6 0 11 21 11 50 0 37 -4 50 -14 50 -8
0 -17 -8 -19 -17 -4 -17 -5 -17 -6 0 -1 12 -10 17 -31 17 -28 0 -30 -3 -30
-35z m197 -280 c0 -8 -4 -12 -9 -9 -4 3 -8 9 -8 15 0 5 4 9 8 9 5 0 9 -7 9
-15z"/>
<path d="M1346 1874 c-12 -30 -7 -106 7 -101 12 4 14 10 16 65 1 23 6 32 19
33 14 0 14 2 -3 9 -29 12 -32 12 -39 -6z"/>
<path d="M1432 1874 c4 -21 22 -23 26 -1 2 10 -3 17 -13 17 -10 0 -15 -6 -13
-16z"/>
<path d="M2320 1838 c0 -44 12 -141 35 -296 2 -13 8 -29 15 -37 8 -10 8 -15
-2 -19 -7 -3 -3 -4 9 -2 26 5 37 -17 23 -44 -17 -31 -11 -37 10 -10 11 14 22
46 26 73 4 26 10 47 15 47 5 0 9 5 9 11 0 5 -5 7 -12 3 -7 -5 -8 -3 -2 7 5 8
9 27 10 43 l1 30 -24 -28 c-20 -24 -22 -31 -11 -44 11 -13 10 -15 -4 -9 -10 3
-20 1 -24 -5 -4 -7 -3 -8 5 -4 8 5 10 0 7 -19 -3 -15 -8 -30 -12 -34 -4 -3 -4
2 -1 12 5 13 1 17 -16 18 -12 0 -17 3 -10 5 8 4 9 14 3 34 -5 16 -6 39 -3 51
4 15 2 20 -5 15 -7 -4 -10 3 -8 21 2 16 5 64 6 108 2 108 7 86 15 -70 l7 -130
25 90 c13 50 29 98 34 107 5 10 9 30 9 45 0 22 2 25 10 13 7 -11 9 -2 9 30 -1
37 -2 41 -9 20 -8 -24 -8 -24 -9 -2 -1 20 -6 22 -66 22 l-65 0 0 -52z m27 -80
c-2 -18 -4 -6 -4 27 0 33 2 48 4 33 2 -15 2 -42 0 -60z m50 -50 c-2 -18 -4 -6
-4 27 0 33 2 48 4 33 2 -15 2 -42 0 -60z m20 20 c-2 -13 -4 -3 -4 22 0 25 2
35 4 23 2 -13 2 -33 0 -45z m30 -126 c0 -10 -7 -19 -13 -19 -9 0 -10 5 -3 19
5 10 12 18 14 18 2 0 3 -8 2 -18z"/>
<path d="M1976 1817 c-3 -12 -8 -68 -12 -122 -5 -75 -4 -97 5 -89 6 6 14 60
18 122 6 107 2 139 -11 89z"/>
<path d="M120 1819 c0 -5 4 -8 9 -4 5 3 12 1 16 -5 8 -14 35 -13 35 1 0 6 -7
9 -15 5 -8 -3 -15 -1 -15 4 0 6 -7 10 -15 10 -8 0 -15 -5 -15 -11z"/>
<path d="M1296 1815 c-9 -26 -7 -32 5 -12 6 10 9 21 6 23 -2 3 -7 -2 -11 -11z"/>
<path d="M1443 1800 c5 -31 17 -36 17 -7 0 15 -4 27 -10 27 -5 0 -9 -9 -7 -20z"/>
<path d="M2515 1749 c-4 -6 -5 -12 -2 -15 2 -3 7 2 10 11 7 17 1 20 -8 4z"/>
<path d="M760 1560 c0 -13 5 -18 15 -14 12 5 13 10 4 20 -15 19 -19 18 -19 -6z"/>
<path d="M811 1571 c-12 -8 -12 -11 1 -25 14 -14 16 -13 14 9 0 14 -1 25 -1
25 0 0 -6 -4 -14 -9z"/>
<path d="M640 1514 c0 -43 2 -46 23 -40 12 3 28 6 35 6 7 0 12 15 12 40 0 39
-1 40 -35 40 -35 0 -35 0 -35 -46z"/>
<path d="M2451 1524 c0 -11 3 -14 6 -6 3 7 2 16 -1 19 -3 4 -6 -2 -5 -13z"/>
<path d="M2482 1505 c0 -16 2 -22 5 -12 2 9 2 23 0 30 -3 6 -5 -1 -5 -18z"/>
<path d="M830 1480 c0 -5 5 -10 11 -10 5 0 7 5 4 10 -3 6 -8 10 -11 10 -2 0
-4 -4 -4 -10z"/>
<path d="M1771 1474 c0 -11 3 -14 6 -6 3 7 2 16 -1 19 -3 4 -6 -2 -5 -13z"/>
<path d="M2475 1450 c3 -5 8 -10 11 -10 2 0 4 5 4 10 0 6 -5 10 -11 10 -5 0
-7 -4 -4 -10z"/>
<path d="M1726 1423 c5 -5 12 -12 16 -18 4 -6 8 -2 8 8 0 9 -7 17 -17 17 -9 0
-12 -3 -7 -7z"/>
<path d="M2421 1414 c0 -11 3 -14 6 -6 3 7 2 16 -1 19 -3 4 -6 -2 -5 -13z"/>
<path d="M1286 1392 c-10 -12 -15 -26 -10 -33 4 -8 3 -10 -4 -5 -7 4 -12 3
-12 -3 0 -6 -12 -18 -26 -27 -20 -14 -27 -15 -33 -5 -6 9 -10 6 -14 -9 -4 -14
-10 -19 -18 -14 -7 4 -10 3 -6 -4 9 -14 67 7 85 31 7 9 19 17 26 17 24 0 43
24 37 48 l-6 24 -19 -20z"/>
<path d="M1697 1393 c-10 -10 -8 -33 3 -33 5 0 6 7 3 17 -5 12 -3 14 7 8 9 -5
11 -4 6 3 -8 14 -10 14 -19 5z"/>
<path d="M1750 1382 c-23 -16 -43 -51 -21 -38 5 4 11 0 14 -6 3 -10 8 -10 17
-2 8 8 9 14 1 18 -6 4 -11 12 -11 17 0 6 4 8 9 5 5 -3 11 1 15 9 7 19 6 19
-24 -3z"/>
<path d="M2400 1375 c-7 -9 -10 -18 -7 -21 3 -3 10 4 17 15 13 25 8 27 -10 6z"/>
<path d="M2128 1353 c7 -3 16 -2 19 1 4 3 -2 6 -13 5 -11 0 -14 -3 -6 -6z"/>
<path d="M2040 1310 c0 -5 5 -10 10 -10 6 0 10 5 10 10 0 6 -4 10 -10 10 -5 0
-10 -4 -10 -10z"/>
<path d="M1358 1293 c7 -3 16 -2 19 1 4 3 -2 6 -13 5 -11 0 -14 -3 -6 -6z"/>
<path d="M1390 1290 c0 -5 5 -10 11 -10 5 0 7 5 4 10 -3 6 -8 10 -11 10 -2 0
-4 -4 -4 -10z"/>
<path d="M1309 1273 c-13 -17 -13 -17 6 -3 11 8 22 16 24 17 2 2 0 3 -6 3 -6
0 -17 -8 -24 -17z"/>
<path d="M1415 1271 c-3 -5 -1 -12 5 -16 5 -3 10 1 10 9 0 18 -6 21 -15 7z"/>
<path d="M1335 1260 c-13 -6 -15 -9 -5 -9 8 0 22 4 30 9 18 12 2 12 -25 0z"/>
<path d="M1520 1260 c0 -5 5 -10 10 -10 6 0 10 5 10 10 0 6 -4 10 -10 10 -5 0
-10 -4 -10 -10z"/>
<path d="M2338 1263 c6 -2 18 -2 25 0 6 3 1 5 -13 5 -14 0 -19 -2 -12 -5z"/>
<path d="M2176 1143 c-6 -14 -5 -15 5 -6 7 7 10 15 7 18 -3 3 -9 -2 -12 -12z"/>
<path d="M1983 869 c14 -8 22 -8 30 0 8 8 3 11 -18 11 -26 -1 -28 -2 -12 -11z"/>
<path d="M0 859 c0 -5 5 -7 10 -4 5 3 10 8 10 11 0 2 -4 4 -10 4 -5 0 -10 -5
-10 -11z"/>
<path d="M1704 766 c-3 -8 -1 -23 5 -33 9 -15 10 -13 9 15 -2 35 -6 39 -14 18z"/>
<path d="M1642 725 c0 -16 2 -22 5 -12 2 9 2 23 0 30 -3 6 -5 -1 -5 -18z"/>
<path d="M1675 740 c-3 -5 -1 -18 5 -29 13 -25 13 -61 0 -61 -5 0 -10 -7 -10
-16 0 -8 -4 -13 -8 -10 -5 3 -9 -11 -10 -30 -1 -20 3 -32 8 -29 17 11 11 -7
-7 -21 -17 -13 -17 -13 -1 -14 11 0 20 10 23 28 3 15 13 51 21 80 14 48 14 54
-1 68 -9 9 -14 23 -11 30 6 16 0 19 -9 4z"/>
<path d="M1318 693 c7 -3 16 -2 19 1 4 3 -2 6 -13 5 -11 0 -14 -3 -6 -6z"/>
<path d="M1600 515 c0 -20 -4 -26 -15 -21 -23 9 -34 -25 -19 -59 7 -16 13 -25
14 -20 0 6 12 18 28 27 15 9 32 30 39 47 6 18 7 29 2 25 -6 -3 -19 2 -30 12
-18 17 -19 16 -19 -11z"/>
<path d="M1369 377 c5 -5 28 -7 52 -5 l44 3 -52 5 c-29 3 -48 1 -44 -3z"/>
</g>
</svg>
" />
</svg>
