<svg
  xmlns="http://www.w3.org/2000/svg"
  width="current"
  height="current"
  viewBox="0 0 24 24"
>
  <path fill="current" fill-rule="evenodd" d="<?xml version="1.0" standalone="no"?>
<!DOCTYPE svg PUBLIC "-//W3C//DTD SVG 20010904//EN"
 "http://www.w3.org/TR/2001/REC-SVG-20010904/DTD/svg10.dtd">
<svg version="1.0" xmlns="http://www.w3.org/2000/svg"
 width="299.000000pt" height="168.000000pt" viewBox="0 0 299.000000 168.000000"
 preserveAspectRatio="xMidYMid meet">

<g transform="translate(0.000000,168.000000) scale(0.100000,-0.100000)"
fill="#000000" stroke="none">
<path d="M0 1500 c0 -99 2 -180 5 -180 3 0 23 11 45 25 22 14 46 25 54 25 31
0 32 146 1 180 -16 17 -15 19 3 29 12 6 28 8 36 5 10 -4 16 -1 16 7 0 11 3 11
10 -1 8 -12 10 -11 10 6 0 12 -3 36 -6 53 l-6 31 -84 0 -84 0 0 -180z"/>
<path d="M185 1653 c2 -16 7 -45 10 -65 4 -25 10 -35 19 -32 8 3 15 -4 18 -20
3 -14 2 -23 -3 -21 -4 3 -10 -3 -13 -12 -7 -21 5 -73 17 -73 56 -1 59 0 43 16
-9 8 -16 24 -16 35 0 19 1 19 25 2 13 -10 25 -24 25 -30 0 -7 4 -13 9 -13 5 0
7 10 3 22 -3 14 -2 19 6 14 8 -5 12 0 12 13 0 21 15 29 22 12 2 -5 14 -11 28
-13 21 -2 25 1 22 20 -2 21 1 23 29 17 30 -7 30 -7 12 14 -9 12 -22 21 -28 21
-12 0 -39 30 -42 48 -2 6 17 21 41 32 78 35 67 40 -93 40 l-150 0 4 -27z"/>
<path d="M634 1670 c17 -6 36 -5 45 0 11 7 3 9 -29 9 -42 -1 -43 -1 -16 -9z"/>
<path d="M705 1670 c3 -5 13 -10 21 -10 21 0 44 -61 43 -112 -1 -24 -3 -34 -6
-23 -14 69 -14 69 -24 54 -6 -10 -9 -11 -9 -1 0 7 -18 -4 -40 -25 -31 -30 -37
-40 -26 -48 7 -5 16 -26 20 -47 3 -20 13 -39 21 -42 9 -3 12 -13 9 -23 -5 -17
-5 -17 9 0 11 14 16 15 20 5 3 -8 6 -6 6 6 1 15 4 16 16 6 12 -10 15 -10 15 1
0 8 15 -1 32 -20 27 -30 38 -35 79 -35 26 -1 47 1 47 4 0 3 1 21 2 40 2 33 2
34 11 10 6 -19 8 -13 4 23 -3 28 -1 46 4 42 5 -3 11 3 13 12 2 10 10 -17 18
-61 11 -64 15 -76 25 -63 10 14 13 11 25 -18 15 -39 14 -38 38 -26 31 16 156
51 182 51 14 0 42 5 62 11 55 15 72 53 65 143 -6 71 1 53 18 -49 l7 -40 14 25
13 25 2 -25 1 -25 8 25 c7 21 8 22 9 5 2 -25 47 -59 64 -48 15 10 87 12 81 2
-2 -4 0 -9 5 -11 5 -1 12 -18 16 -37 5 -23 4 -31 -4 -27 -18 11 -13 -56 6 -84
16 -22 16 -23 0 -17 -15 6 -16 3 -7 -13 6 -11 15 -20 20 -20 6 0 9 -3 8 -7 -5
-13 40 -83 52 -83 6 0 9 -4 5 -9 -3 -6 3 -15 12 -20 14 -8 7 -9 -26 -4 -52 7
-78 32 -116 112 -28 58 -36 67 -78 94 -29 19 -89 17 -129 -4 -33 -17 -68 -82
-68 -123 0 -22 -5 -54 -12 -72 -10 -28 -9 -36 5 -52 22 -24 21 -32 -3 -32 -11
0 -20 -5 -20 -11 0 -6 -7 -9 -15 -5 -8 3 -15 1 -15 -4 0 -6 -3 -9 -7 -9 -25 4
-43 -3 -43 -17 0 -35 -29 8 -36 54 -8 54 -34 87 -63 79 -15 -4 -27 3 -42 25
-12 16 -23 27 -26 24 -3 -2 2 -15 11 -28 21 -30 20 -38 -5 -33 -25 5 -49 23
-49 38 0 6 11 0 25 -13 14 -13 25 -19 25 -13 0 12 -50 48 -50 36 0 -5 -4 -2
-9 6 -5 8 -19 15 -30 16 -11 1 -18 -2 -15 -7 3 -4 -2 -5 -10 -2 -9 3 -14 10
-11 14 7 12 -44 9 -53 -4 -5 -6 -14 -27 -22 -46 -27 -75 -35 -90 -48 -90 -7 0
-10 4 -7 10 3 5 1 19 -6 31 -8 16 -8 20 1 14 8 -5 11 0 8 16 -2 13 -9 23 -16
21 -6 -1 -12 5 -12 15 0 9 -3 14 -6 11 -3 -3 -1 -28 4 -55 l9 -50 -60 15 c-55
14 -61 14 -72 -1 -7 -10 -17 -17 -22 -17 -18 0 -54 -47 -48 -62 4 -9 0 -18 -9
-21 -10 -4 -16 -18 -16 -37 0 -28 -2 -29 -20 -18 -11 7 -20 19 -20 26 0 7 -7
15 -15 18 -12 5 -11 9 7 23 l21 18 -27 7 c-15 4 -24 10 -21 15 2 5 -7 12 -23
16 -15 4 -21 10 -14 12 6 3 12 11 12 19 0 8 -6 14 -12 15 -7 0 -2 5 12 11 14
6 30 10 37 9 6 -1 11 7 10 18 -1 19 -8 20 -79 18 -60 -1 -81 1 -89 13 -9 13
-10 13 -6 -1 4 -12 -1 -16 -19 -16 -28 0 -44 23 -44 64 0 49 -14 59 -82 62
-10 1 -18 8 -18 16 0 11 -7 13 -28 9 -19 -4 -32 -1 -41 10 -8 9 -26 16 -42 16
-24 0 -29 -4 -29 -25 0 -23 3 -25 35 -22 31 4 35 2 35 -20 0 -23 -1 -23 -26
-7 -22 15 -27 15 -35 3 -5 -8 -9 -244 -9 -536 0 -407 3 -523 13 -527 9 -5 9
-7 0 -12 -9 -4 -13 -29 -13 -76 0 -66 1 -69 22 -66 14 2 31 17 43 40 18 35 42
55 52 44 2 -2 -10 -20 -26 -39 -17 -19 -31 -37 -31 -41 0 -3 29 -6 65 -6 60 0
66 2 77 25 15 32 38 32 38 0 0 -23 4 -25 44 -25 57 0 77 24 66 76 -6 27 -5 37
6 41 8 3 14 11 14 18 0 8 5 17 10 20 7 5 8 -3 3 -22 -4 -15 -6 -44 -6 -63 1
-20 -5 -42 -14 -52 -15 -17 -12 -18 76 -18 88 0 93 1 116 27 13 16 25 38 25
50 0 12 5 25 11 28 6 4 8 13 5 21 -3 7 6 27 20 44 14 16 24 36 21 42 -3 7 -10
0 -16 -16 -14 -34 -26 -28 -17 9 4 15 13 25 25 25 10 0 24 7 31 15 11 14 14
13 25 -1 8 -12 14 -14 19 -6 11 18 26 14 19 -4 -3 -9 0 -20 7 -24 11 -7 11
-12 2 -23 -7 -7 -9 -17 -5 -20 3 -4 1 -7 -6 -7 -7 0 -9 -4 -6 -10 3 -5 1 -10
-6 -10 -7 0 -21 -8 -31 -17 -14 -13 -21 -14 -27 -5 -5 8 -14 3 -29 -18 -12
-16 -22 -34 -22 -40 0 -6 -7 -22 -16 -35 l-16 -25 47 0 c38 0 48 4 52 20 7 25
21 27 19 3 -1 -16 14 -18 173 -20 142 -2 180 1 205 14 21 11 66 17 146 19 74
2 106 0 90 -5 -14 -5 -47 -10 -75 -10 -38 -1 -46 -4 -33 -11 10 -7 166 -9 410
-8 351 3 388 4 348 17 -41 12 -43 14 -22 22 13 5 22 15 19 21 -5 15 30 48 50
48 8 0 12 4 9 9 -6 9 21 36 44 43 8 2 24 -6 36 -19 12 -12 35 -24 53 -26 33
-4 55 -17 28 -17 -21 0 -32 -19 -18 -33 13 -13 14 -27 2 -27 -5 0 -22 -5 -38
-12 -15 -6 -32 -10 -36 -9 -5 1 -6 -3 -2 -9 4 -7 161 -10 461 -10 l454 0 0 74
c0 67 -2 74 -22 79 -21 6 -21 7 -4 26 15 17 16 23 6 36 -10 12 -9 16 4 21 25
10 19 38 -14 57 -17 10 -30 27 -30 38 0 25 8 24 37 -3 l23 -22 -2 235 -3 234
-24 1 c-12 1 -40 -3 -62 -8 -31 -8 -41 -7 -54 5 -23 24 -3 29 75 21 l70 -7 0
85 c0 46 -5 111 -11 143 -8 46 -8 60 3 66 11 7 11 9 -1 9 -10 0 -11 3 -2 13 7
10 11 102 10 295 l0 282 -118 0 c-114 0 -118 -1 -131 -24 -8 -15 -10 -38 -6
-60 5 -28 3 -38 -9 -42 -9 -4 -15 -19 -16 -38 l-1 -31 -13 30 -13 30 -7 -27
c-4 -16 -11 -25 -16 -22 -5 3 -9 1 -9 -4 0 -17 -28 -22 -60 -11 -16 6 -30 16
-30 23 0 7 -14 10 -40 8 -39 -4 -40 -5 -40 -44 0 -31 -6 -45 -25 -60 -14 -11
-25 -26 -25 -34 0 -8 -4 -14 -10 -14 -5 0 -12 -16 -16 -36 -5 -25 -9 -32 -15
-22 -12 18 -10 -61 2 -87 7 -15 8 -9 4 23 -3 25 -1 42 5 42 6 0 10 -28 10 -66
0 -36 5 -74 10 -84 8 -15 7 -18 -3 -15 -12 5 -15 -6 -18 -57 0 -16 -11 -22
-31 -19 -5 0 -8 -4 -8 -11 0 -7 -5 -5 -12 4 -7 9 -23 19 -35 23 -19 5 -25 1
-33 -19 -11 -29 -36 -33 -65 -12 -18 13 -18 14 7 9 14 -3 29 0 32 6 4 6 2 11
-3 11 -13 0 -10 42 4 52 6 5 4 8 -5 8 -13 0 -13 1 0 10 13 8 13 11 -1 26 -15
15 -18 14 -35 -4 -11 -11 -27 -18 -37 -16 -13 2 -17 -2 -13 -12 7 -17 -10 -19
-21 -1 -9 15 -4 58 9 75 9 10 13 9 22 -2 7 -10 21 -13 39 -9 20 4 27 11 27 30
0 13 4 21 10 18 6 -4 10 9 10 31 0 32 2 35 16 23 9 -7 14 -22 11 -36 -3 -16 1
-24 15 -29 11 -3 17 -12 14 -20 -6 -17 10 -19 20 -3 4 8 9 7 15 -2 7 -11 9
-11 8 1 -1 8 -5 26 -9 40 -8 24 -8 24 -9 3 -2 -46 -21 -21 -21 26 0 68 -27 98
-101 116 -46 10 -63 10 -94 -1 -55 -19 -98 -76 -101 -133 -1 -25 2 -50 6 -56
4 -5 11 -20 14 -32 5 -16 2 -23 -13 -28 -10 -3 -24 -19 -31 -35 -10 -24 -16
-28 -26 -19 -20 17 -7 167 17 194 9 11 21 34 24 50 4 17 9 38 12 48 3 12 -2
17 -17 17 -16 0 -20 5 -16 15 7 19 -36 65 -61 65 -11 0 -26 6 -32 14 -7 8 -20
12 -31 9 -27 -7 -55 12 -56 39 -2 67 -5 78 -19 78 -25 0 -17 20 15 38 65 37
42 42 -184 42 -196 0 -215 -2 -219 -17 -4 -17 -5 -17 -6 0 -1 16 -19 17 -231
17 l-230 0 1 -27 c0 -24 2 -25 8 -8 6 14 10 6 15 -34 4 -29 5 -56 1 -59 -3 -3
-5 6 -5 19 0 17 -3 20 -9 11 -9 -14 -21 29 -21 74 0 24 -1 24 -116 24 -74 0
-113 -4 -109 -10z m734 -43 c1 -5 -3 -5 -9 -2 -6 4 -10 -6 -11 -22 0 -15 -3
-22 -6 -15 -3 7 -2 30 2 50 6 31 9 34 15 17 5 -11 9 -24 9 -28z m-522 -4 c-3
-10 -5 -4 -5 12 0 17 2 24 5 18 2 -7 2 -21 0 -30z m460 15 c-3 -8 -6 -5 -6 6
-1 11 2 17 5 13 3 -3 4 -12 1 -19z m60 -60 c-3 -8 -6 -5 -6 6 -1 11 2 17 5 13
3 -3 4 -12 1 -19z m-700 -40 c-3 -8 -6 -5 -6 6 -1 11 2 17 5 13 3 -3 4 -12 1
-19z m190 -10 c-3 -8 -6 -5 -6 6 -1 11 2 17 5 13 3 -3 4 -12 1 -19z m520 -25
c-3 -10 -5 -4 -5 12 0 17 2 24 5 18 2 -7 2 -21 0 -30z m-440 -15 c-3 -8 -6 -5
-6 6 -1 11 2 17 5 13 3 -3 4 -12 1 -19z m-70 -20 c-3 -8 -6 -5 -6 6 -1 11 2
17 5 13 3 -3 4 -12 1 -19z m1720 -30 c-3 -7 -5 -2 -5 12 0 14 2 19 5 13 2 -7
2 -19 0 -25z m-1640 -20 c-3 -7 -5 -2 -5 12 0 14 2 19 5 13 2 -7 2 -19 0 -25z
m1676 -88 c4 -34 3 -45 -2 -30 l-8 25 -5 -25 c-3 -14 -4 2 -2 35 2 45 1 53 -5
30 -6 -21 -9 -24 -10 -10 0 11 2 31 6 44 6 22 7 23 13 5 4 -10 10 -44 13 -74z
m137 66 c0 -2 -7 -9 -15 -16 -13 -11 -14 -10 -9 4 5 14 24 23 24 12z m-949
-80 c3 -20 4 -47 2 -60 -3 -13 2 -36 10 -52 8 -16 13 -50 13 -76 -1 -27 2 -48
6 -48 4 0 8 -6 8 -14 0 -20 -38 -27 -88 -15 -65 14 -80 25 -88 64 -3 20 -16
40 -30 50 -31 20 -31 33 1 30 16 -2 25 2 25 10 0 8 8 20 18 27 25 18 34 46 22
68 -20 38 1 56 64 54 28 -1 32 -5 37 -38z m766 -8 c-3 -8 -6 -5 -6 6 -1 11 2
17 5 13 3 -3 4 -12 1 -19z m-1177 -88 c12 -16 18 -30 13 -30 -4 0 -1 -5 7 -10
12 -8 11 -10 -5 -8 -34 5 -28 -17 7 -22 30 -5 33 -8 36 -46 2 -29 -3 -47 -19
-68 -31 -39 -65 -32 -106 22 -18 24 -33 47 -33 50 0 4 12 15 28 24 16 10 21
18 12 18 -13 0 -13 1 0 10 10 6 11 10 3 10 -14 0 -18 61 -6 73 15 15 43 5 63
-23z m1105 20 c-3 -5 -11 -10 -16 -10 -6 0 -7 5 -4 10 3 6 11 10 16 10 6 0 7
-4 4 -10z m-40 -48 c-3 -9 -6 -18 -5 -20 2 -6 -35 -62 -41 -62 -11 0 1 40 24
88 21 40 38 35 22 -6z m305 18 c0 -5 -7 -10 -15 -10 -8 0 -15 5 -15 10 0 6 7
10 15 10 8 0 15 -4 15 -10z m-613 -16 c-3 -3 -12 -4 -19 -1 -8 3 -5 6 6 6 11
1 17 -2 13 -5z m325 -26 c-8 -8 -9 -4 -5 13 4 13 8 18 11 10 2 -7 -1 -18 -6
-23z m-2322 2 c0 -5 -2 -10 -4 -10 -3 0 -8 5 -11 10 -3 6 -1 10 4 10 6 0 11
-4 11 -10z m2410 -1 c0 -5 -4 -8 -8 -5 -5 3 -25 -6 -45 -19 -20 -14 -41 -25
-47 -25 -17 0 -6 25 11 25 8 1 28 8 44 18 36 19 45 21 45 6z m80 3 c0 -4 -5
-13 -11 -19 -9 -9 -8 -21 5 -46 9 -19 16 -47 16 -61 0 -22 4 -26 30 -26 17 0
30 -5 30 -11 0 -7 -10 -9 -26 -6 -30 5 -56 -16 -47 -40 4 -11 2 -14 -8 -11
-21 7 -35 78 -18 89 15 9 -17 13 -73 9 -16 -1 -28 3 -28 9 0 7 22 11 53 11
l54 0 -5 30 c-5 36 5 80 18 80 6 0 10 -4 10 -8z m35 -12 c3 -5 1 -10 -4 -10
-6 0 -11 5 -11 10 0 6 2 10 4 10 3 0 8 -4 11 -10z m-88 -37 c-3 -3 -11 -2 -17
2 -9 6 -9 10 1 16 14 8 27 -7 16 -18z m-1734 -34 c15 -17 27 -35 27 -40 0 -5
4 -9 9 -9 4 0 11 -16 14 -36 7 -43 -20 -89 -60 -105 -13 -5 -22 -13 -19 -18 4
-5 -3 -7 -14 -4 -11 3 -17 9 -15 14 3 4 -4 13 -15 19 -17 9 -20 8 -20 -10 0
-12 5 -18 10 -15 6 3 10 2 10 -2 0 -5 -9 -14 -19 -20 -15 -10 -22 -9 -34 5
-17 20 -17 59 0 70 6 4 13 20 15 37 2 19 11 34 28 42 24 12 25 13 3 13 -18 0
-23 6 -23 27 0 33 26 63 54 63 12 0 34 -14 49 -31z m1683 22 c-8 -12 -46 -21
-46 -11 0 5 10 11 23 13 12 2 23 5 25 6 2 0 1 -3 -2 -8z m-406 -52 c0 -18 -18
-9 -23 12 -4 16 -3 18 9 8 8 -6 14 -15 14 -20z m459 -31 c-1 -30 -14 -47 -28
-39 -7 5 -10 14 -7 20 4 6 12 8 18 5 7 -5 9 -1 5 9 -3 10 -2 17 3 17 6 0 10
-6 9 -12z m-1067 -40 c-19 -19 -14 -27 12 -22 18 3 32 -4 50 -23 15 -15 26
-31 26 -35 0 -10 2 -10 -39 2 -30 8 -36 6 -65 -22 -32 -32 -29 -33 29 -13 20
7 20 6 1 -9 -22 -18 -17 -19 37 -7 21 5 37 7 34 5 -3 -3 8 -18 24 -34 21 -21
29 -38 29 -64 0 -35 -14 -49 -23 -23 -3 9 -9 9 -30 -2 -29 -15 -57 -9 -57 13
0 21 -50 43 -93 42 -43 -2 -36 11 11 20 22 5 32 3 32 -6 0 -7 7 -10 15 -6 8 3
15 1 15 -4 0 -6 5 -10 10 -10 6 0 10 6 10 14 0 20 -89 43 -100 26 -6 -9 -9 -9
-15 0 -4 7 1 13 13 17 14 3 24 19 31 48 6 24 15 46 21 50 5 3 6 13 3 21 -3 9
0 20 8 25 20 12 25 11 11 -3z m-1343 -43 c0 -5 -4 -3 -9 5 -5 8 -9 22 -9 30 0
16 17 -16 18 -35z m1905 16 c18 -7 18 -8 3 -14 -10 -4 -22 -17 -27 -29 -9 -19
-9 -18 -4 9 5 28 3 32 -12 26 -12 -4 -15 -3 -10 5 8 13 22 14 50 3z m-886 -74
c22 -46 -8 -167 -42 -167 -8 0 -8 2 0 8 16 10 34 70 33 106 -1 24 -3 20 -9
-17 -10 -57 -25 -78 -54 -76 l-21 2 22 4 c26 5 32 19 40 94 5 54 4 59 -23 85
l-29 28 35 -20 c19 -11 41 -32 48 -47z m218 38 c-3 -9 -10 -13 -16 -10 -6 4
-5 11 3 20 15 16 22 11 13 -10z m-787 8 c-1 -5 0 -10 1 -13 9 -24 9 -65 -2
-77 -6 -8 -13 -23 -15 -33 -7 -45 -23 -70 -46 -70 -13 0 -27 -3 -33 -8 -5 -4
-8 -5 -7 -3 2 2 -2 10 -8 17 -14 17 7 40 44 49 32 8 44 45 15 45 -14 0 -18 5
-14 16 3 8 2 12 -4 9 -6 -3 -11 2 -11 12 -1 10 -2 25 -3 33 0 8 6 18 14 22 21
9 70 10 69 1z m831 -55 c0 -10 -5 -15 -13 -12 -8 3 -14 18 -14 34 0 26 2 27
13 12 8 -9 14 -25 14 -34z m-1247 -15 c5 -26 4 -26 -9 -8 -10 13 -14 15 -14 4
0 -12 -2 -12 -9 0 -6 9 -5 19 2 26 16 17 24 11 30 -22z m337 -36 c0 -4 -13 8
-30 26 -16 19 -30 39 -30 43 1 11 59 -58 60 -69z m2110 21 c0 -15 -4 -29 -9
-32 -14 -9 -33 21 -28 46 4 21 4 20 6 -4 0 -15 6 -30 12 -34 8 -5 9 6 5 37 -5
32 -4 40 3 29 6 -8 11 -27 11 -42z m-320 -27 c0 -5 -7 -14 -15 -21 -13 -10
-15 -9 -15 9 0 12 6 21 15 21 8 0 15 -4 15 -9z m-980 -68 c0 -20 -3 -24 -11
-16 -7 7 -9 19 -6 27 10 24 17 19 17 -11z m114 18 c3 -5 -1 -12 -10 -15 -20
-8 -29 -1 -19 13 8 13 22 14 29 2z m880 -6 c6 -18 -29 -41 -39 -25 -7 11 12
40 25 40 4 0 10 -7 14 -15z m-1869 -82 c2 -43 1 -52 -6 -34 -6 15 -14 21 -24
17 -10 -3 -20 5 -30 24 -20 39 -20 41 15 35 24 -4 30 -2 30 12 0 41 12 -1 15
-54z m-247 40 c7 -7 8 -13 3 -13 -6 0 -8 -8 -5 -17 5 -16 4 -16 -10 1 -17 21
-67 29 -78 12 -5 -7 -8 -7 -8 2 0 7 -5 10 -12 6 -7 -4 -8 -3 -4 5 5 7 20 10
37 7 16 -2 31 -1 34 3 7 12 30 9 43 -6z m86 -1 c3 -5 -8 -9 -24 -10 -16 0 -32
4 -35 9 -4 5 7 9 24 9 16 0 32 -4 35 -8z m1096 4 c0 -2 -7 -7 -16 -10 -8 -3
-12 -2 -9 4 6 10 25 14 25 6z m63 -16 c-1 -8 -5 -28 -9 -44 -5 -22 -4 -27 7
-24 8 3 13 15 12 26 -2 16 4 23 22 28 14 3 25 10 25 15 0 5 4 9 9 9 5 0 7 -9
4 -20 -4 -13 -14 -20 -30 -20 -13 0 -22 -4 -18 -10 3 -5 12 -7 20 -3 9 3 15
-1 15 -11 0 -10 6 -13 15 -10 8 4 15 1 15 -5 0 -6 -5 -11 -11 -11 -13 0 -2
-53 12 -58 5 -2 9 -12 9 -22 0 -23 -35 -46 -45 -30 -4 7 -24 8 -51 4 -30 -4
-44 -3 -44 5 0 6 -4 11 -10 11 -5 0 -10 -9 -10 -21 0 -20 -1 -20 -29 -3 -31
18 -46 50 -30 60 6 3 16 0 24 -6 12 -10 15 -10 15 0 0 7 -7 18 -15 24 -20 15
-44 83 -37 108 3 15 7 16 13 7 4 -7 5 -17 3 -21 -3 -4 -1 -8 5 -8 5 0 16 -7
24 -14 13 -13 17 -10 32 25 14 30 23 39 39 37 12 -2 20 -10 19 -18z m-1373 0
c0 -5 -7 -10 -15 -10 -8 0 -15 5 -15 10 0 6 7 10 15 10 8 0 15 -4 15 -10z
m1202 -15 c3 -14 1 -28 -3 -31 -5 -3 -9 9 -9 25 0 38 6 40 12 6z m1385 -17
c-3 -8 -6 -5 -6 6 -1 11 2 17 5 13 3 -3 4 -12 1 -19z m-1607 -23 c-7 -9 -15
-13 -18 -10 -3 2 1 11 8 20 7 9 15 13 18 10 3 -2 -1 -11 -8 -20z m-968 -49
c291 -118 639 -268 634 -273 -1 -2 -154 60 -339 137 -185 77 -339 140 -344
140 -10 1 -50 30 -40 30 3 0 43 -15 89 -34z m603 -12 l30 -25 -32 15 c-17 9
-35 20 -38 26 -11 18 10 10 40 -16z m-21 -36 c14 -18 23 -34 21 -37 -6 -6 -44
29 -56 51 -16 30 8 20 35 -14z m931 -35 c-8 -32 -28 -49 -33 -28 -4 18 16 55
29 55 7 0 9 -10 4 -27z m-85 -64 c0 -6 -4 -7 -10 -4 -5 3 -10 11 -10 16 0 6 5
7 10 4 6 -3 10 -11 10 -16z m-1527 -79 c-1 -18 -7 -43 -13 -56 -15 -27 -49
-38 -57 -18 -3 8 -9 11 -14 8 -12 -7 -11 33 1 57 6 10 17 19 24 19 8 0 19 7
26 15 20 24 35 12 33 -25z m350 23 c-7 -2 -19 -2 -25 0 -7 3 -2 5 12 5 14 0
19 -2 13 -5z m2252 -29 c22 -9 0 -24 -35 -24 -24 1 -24 1 -6 15 23 17 20 17
41 9z m-75 -24 c-20 -13 -60 -13 -60 0 0 6 17 10 38 10 27 0 33 -3 22 -10z
m-77 -7 c-7 -2 -19 -2 -25 0 -7 3 -2 5 12 5 14 0 19 -2 13 -5z m-45 -8 c-3 -3
-15 -7 -27 -10 -11 -2 -26 -7 -31 -10 -6 -3 -7 1 -4 9 4 10 18 16 37 16 17 0
28 -2 25 -5z m-2207 -15 c2 -16 4 -23 18 -63 13 -39 6 -101 -11 -91 -5 3 -22
-5 -36 -19 -28 -26 -103 -50 -128 -40 -11 4 -9 10 7 24 12 11 28 19 36 19 8 0
12 4 9 9 -3 4 10 24 29 44 22 23 35 46 35 62 0 15 5 35 10 46 11 20 29 26 31
9z m660 -17 c1 -10 1 -25 0 -33 -2 -12 0 -12 7 -1 7 10 14 11 31 2 24 -14 28
-26 5 -17 -9 3 -25 -1 -37 -9 -21 -14 -21 -15 -2 -16 18 -1 18 -2 -2 -7 -15
-5 -20 -11 -14 -20 10 -16 22 -17 149 -7 56 4 102 4 102 1 0 -21 -67 -127 -84
-133 -27 -10 -86 -10 -86 0 0 4 -9 7 -21 7 -11 0 -18 -4 -15 -9 7 -11 -43 -21
-105 -21 -33 0 -49 4 -49 13 0 6 -11 17 -25 24 -17 8 -25 8 -25 0 0 -6 -3 -8
-6 -5 -9 10 35 87 56 98 26 14 28 70 3 70 -14 0 -14 2 2 20 10 11 22 20 27 20
6 0 21 9 35 20 32 25 53 26 54 3z m29 13 c0 -3 -4 -8 -10 -11 -5 -3 -10 -1
-10 4 0 6 5 11 10 11 6 0 10 -2 10 -4z m1770 -30 c0 -3 -4 -8 -10 -11 -5 -3
-10 -1 -10 4 0 6 5 11 10 11 6 0 10 -2 10 -4z m-811 -10 c-10 -10 -57 -14 -70
-5 -9 6 0 9 30 9 24 0 42 -2 40 -4z m-109 -28 c0 -13 -7 -15 -40 -11 -26 4
-40 2 -40 -6 0 -6 -7 -11 -16 -11 -11 0 -13 -6 -9 -19 5 -16 -4 -25 -48 -46
-30 -14 -61 -23 -69 -20 -8 3 -21 -1 -28 -10 -15 -18 -35 -21 -24 -3 5 8 2 9
-9 5 -26 -10 -20 9 19 68 37 56 42 59 134 68 19 2 56 4 82 3 38 -1 48 -5 48
-18z m-1800 -39 c0 -25 16 -24 32 1 18 28 23 25 26 -11 1 -17 -2 -28 -7 -25
-12 8 -25 -31 -23 -66 1 -16 -2 -28 -7 -28 -10 0 -21 34 -21 68 0 12 -4 22
-10 22 -5 0 -10 16 -10 36 0 21 4 33 10 29 6 -3 10 -15 10 -26z m130 -129 c0
-5 -4 -10 -9 -10 -6 0 -13 5 -16 10 -3 6 1 10 9 10 9 0 16 -4 16 -10z m1365
-20 c-3 -5 -32 -9 -63 -8 l-57 1 55 7 c30 4 59 7 63 8 5 1 5 -2 2 -8z m-148
-16 c-3 -3 -12 -4 -19 -1 -8 3 -5 6 6 6 11 1 17 -2 13 -5z m468 -14 c19 -8 19
-9 -2 -9 -12 -1 -25 4 -28 9 -7 12 2 12 30 0z"/>
<path d="M1800 1249 c-11 -8 -7 -9 18 -5 18 3 32 1 32 -4 0 -6 -3 -9 -7 -9
-19 3 -33 -2 -33 -12 0 -6 7 -9 14 -6 11 4 13 1 10 -11 -5 -14 -3 -13 10 2 24
29 20 56 -6 56 -13 0 -30 -5 -38 -11z"/>
<path d="M1868 1103 c7 -3 16 -2 19 1 4 3 -2 6 -13 5 -11 0 -14 -3 -6 -6z"/>
<path d="M1430 1091 c0 -5 9 -7 20 -4 11 3 20 7 20 9 0 2 -9 4 -20 4 -11 0
-20 -4 -20 -9z"/>
<path d="M1437 1064 c-12 -12 5 -32 23 -27 29 8 34 33 6 33 -12 0 -25 -3 -29
-6z"/>
<path d="M908 1063 c7 -3 16 -2 19 1 4 3 -2 6 -13 5 -11 0 -14 -3 -6 -6z"/>
<path d="M910 1040 c0 -5 4 -10 9 -10 6 0 13 5 16 10 3 6 -1 10 -9 10 -9 0
-16 -4 -16 -10z"/>
<path d="M895 990 c-3 -5 1 -10 10 -10 9 0 13 5 10 10 -3 6 -8 10 -10 10 -2 0
-7 -4 -10 -10z"/>
<path d="M886 951 c-11 -16 27 -22 43 -6 14 13 13 15 -11 15 -15 0 -29 -4 -32
-9z"/>
<path d="M650 921 c0 -17 18 -21 24 -6 3 9 0 15 -9 15 -8 0 -15 -4 -15 -9z"/>
<path d="M1586 605 c-3 -8 -1 -15 3 -15 5 0 11 7 15 15 3 8 1 15 -3 15 -5 0
-11 -7 -15 -15z"/>
<path d="M572 1650 c-18 -29 -15 -36 8 -15 20 18 26 35 12 35 -4 0 -13 -9 -20
-20z"/>
<path d="M547 1523 c-3 -5 6 -9 20 -10 19 -1 22 1 12 8 -17 11 -26 11 -32 2z"/>
<path d="M510 1470 c0 -5 5 -10 11 -10 5 0 7 5 4 10 -3 6 -8 10 -11 10 -2 0
-4 -4 -4 -10z"/>
<path d="M971 1424 c0 -11 3 -14 6 -6 3 7 2 16 -1 19 -3 4 -6 -2 -5 -13z"/>
<path d="M210 1332 c0 -5 7 -13 16 -16 10 -4 14 -1 12 6 -5 15 -28 23 -28 10z"/>
<path d="M288 1333 c7 -3 16 -2 19 1 4 3 -2 6 -13 5 -11 0 -14 -3 -6 -6z"/>
<path d="M168 1313 c7 -3 16 -2 19 1 4 3 -2 6 -13 5 -11 0 -14 -3 -6 -6z"/>
<path d="M278 1293 c6 -2 18 -2 25 0 6 3 1 5 -13 5 -14 0 -19 -2 -12 -5z"/>
<path d="M234 1267 c-8 -22 11 -46 26 -31 7 7 5 17 -4 30 -14 18 -15 18 -22 1z"/>
<path d="M370 1263 c1 -21 20 -30 68 -31 28 0 52 3 52 8 0 13 -45 23 -75 18
-14 -3 -25 -1 -25 3 0 5 -4 9 -10 9 -5 0 -10 -3 -10 -7z"/>
<path d="M2361 1234 c0 -11 3 -14 6 -6 3 7 2 16 -1 19 -3 4 -6 -2 -5 -13z"/>

" />
</svg>
